<svg xmlns="http://www.w3.org/2000/svg" xmlns:xlink="http://www.w3.org/1999/xlink" fill="none" version="1.1" width="24" height="48" viewBox="0 0 24 48"><g><path d="M11.88,39.808Q9.324,39.808,7.308,38.818Q5.292,37.828,3.888,35.902Q2.484,33.976,1.746,31.186Q1.008,28.396,1.008,24.796Q1.008,21.196,1.746,18.388Q2.484,15.58,3.888,13.654Q5.292,11.728,7.308,10.738Q9.324,9.748,11.88,9.748Q14.436,9.748,16.452,10.738Q18.468,11.728,19.872,13.654Q21.276,15.58,22.014,18.388Q22.752,21.196,22.752,24.796Q22.752,32.032,19.89,35.92Q17.028,39.808,11.88,39.808ZM11.88,34.732Q12.888,34.732,13.752,34.138Q14.616,33.544,15.264,32.302Q15.912,31.06,16.272,29.206Q16.632,27.352,16.632,24.796Q16.632,22.24,16.272,20.368Q15.912,18.496,15.264,17.254Q14.616,16.012,13.752,15.418Q12.888,14.824,11.88,14.824Q10.872,14.824,10.008,15.418Q9.144,16.012,8.496,17.254Q7.848,18.496,7.488,20.368Q7.128,22.24,7.128,24.796Q7.128,27.352,7.488,29.206Q7.848,31.06,8.496,32.302Q9.144,33.544,10.008,34.138Q10.872,34.732,11.88,34.732Z" fill="#FFFFFF" fill-opacity="1"/><path d="M7.308,38.818Q9.324,39.808,11.88,39.808Q17.028,39.808,19.89,35.92Q22.752,32.032,22.752,24.796Q22.752,21.196,22.014,18.388Q21.276,15.58,19.872,13.654Q18.468,11.728,16.452,10.738Q14.436,9.748,11.88,9.748Q9.324,9.748,7.308,10.738Q5.292,11.728,3.888,13.654Q2.484,15.58,1.746,18.388Q1.008,21.196,1.008,24.796Q1.008,28.396,1.746,31.186Q2.484,33.976,3.888,35.902Q5.292,37.828,7.308,38.818ZM19.4068,35.5643Q16.7246,39.208,11.88,39.208Q9.46337,39.208,7.57247,38.2794Q5.68954,37.3548,4.37285,35.5486Q3.03523,33.7136,2.32605,31.0326Q1.608,28.318,1.608,24.796Q1.608,21.2735,2.32629,18.5405Q3.03552,15.842,4.37285,14.0074Q5.68953,12.2012,7.57247,11.2766Q9.46337,10.348,11.88,10.348Q14.2966,10.348,16.1875,11.2766Q18.0705,12.2012,19.3872,14.0074Q20.7245,15.842,21.4337,18.5405Q22.152,21.2735,22.152,24.796Q22.152,31.835,19.4068,35.5643ZM9.66808,34.6324Q10.6856,35.332,11.88,35.332Q13.0744,35.332,14.0919,34.6324Q15.0789,33.9539,15.7959,32.5795Q16.4844,31.2601,16.861,29.3204Q17.232,27.4097,17.232,24.796Q17.232,22.1828,16.8612,20.2547Q16.4846,18.2964,15.7959,16.9765Q15.0789,15.6021,14.0919,14.9236Q13.0744,14.224,11.88,14.224Q10.6856,14.224,9.66808,14.9236Q8.68109,15.6021,7.96405,16.9765Q7.2754,18.2964,6.8988,20.2547Q6.528,22.1828,6.528,24.796Q6.528,27.4097,6.899,29.3204Q7.27565,31.2601,7.96405,32.5795Q8.68109,33.9539,9.66808,34.6324ZM13.752,34.138Q12.888,34.732,11.88,34.732Q10.872,34.732,10.008,34.138Q9.144,33.544,8.496,32.302Q7.848,31.06,7.488,29.206Q7.128,27.352,7.128,24.796Q7.128,22.24,7.488,20.368Q7.848,18.496,8.496,17.254Q9.144,16.012,10.008,15.418Q10.872,14.824,11.88,14.824Q12.888,14.824,13.752,15.418Q14.616,16.012,15.264,17.254Q15.912,18.496,16.272,20.368Q16.632,22.24,16.632,24.796Q16.632,27.352,16.272,29.206Q15.912,31.06,15.264,32.302Q14.616,33.544,13.752,34.138Z" fill-rule="evenodd" fill="#008BD6" fill-opacity="1"/></g></svg>