<svg xmlns="http://www.w3.org/2000/svg" xmlns:xlink="http://www.w3.org/1999/xlink" fill="none" version="1.1" width="24" height="48" viewBox="0 0 24 48"><g><path d="M2.7,34.66Q5.04,32.392,7.2,30.214Q9.36,28.036,11.268,25.804Q12.888,23.86,13.878,22.096Q14.868,20.332,14.868,18.712Q14.868,17.848,14.508,17.146Q14.148,16.444,13.5,15.958Q12.852,15.472,11.988,15.202Q11.124,14.932,10.116,14.932Q8.604,14.932,6.75,15.562Q4.896,16.192,3.276,17.308L3.06,12.484Q4.896,11.332,7.164,10.54Q9.432,9.748,11.592,9.748Q13.752,9.748,15.48,10.306Q17.208,10.864,18.396,11.926Q19.584,12.988,20.232,14.536Q20.88,16.084,20.88,18.064Q20.88,19.396,20.502,20.71Q20.124,22.024,19.494,23.284Q18.864,24.544,18.018,25.714Q17.172,26.884,16.272,27.928Q14.976,29.44,13.356,31.06Q11.736,32.68,9.972,34.3L21.168,34.3L21.168,39.088L2.7,39.088L2.7,34.66Z" fill="#FFFFFF" fill-opacity="1"/><path d="M10.6204,33.7Q12.036,32.38,13.356,31.06Q14.976,29.44,16.272,27.928Q17.172,26.884,18.018,25.714Q18.864,24.544,19.494,23.284Q20.124,22.024,20.502,20.71Q20.88,19.396,20.88,18.064Q20.88,16.084,20.232,14.536Q19.584,12.988,18.396,11.926Q17.208,10.864,15.48,10.306Q13.752,9.748,11.592,9.748Q9.432,9.748,7.164,10.54Q4.896,11.332,3.06,12.484L3.24459,16.6066L3.276,17.308Q3.56405,17.1096,3.85952,16.9265Q5.22567,16.08,6.75,15.562Q8.604,14.932,10.116,14.932Q11.124,14.932,11.988,15.202Q12.852,15.472,13.5,15.958Q14.148,16.444,14.508,17.146Q14.868,17.848,14.868,18.712Q14.868,20.332,13.878,22.096Q12.888,23.86,11.268,25.804Q9.36,28.036,7.2,30.214Q5.04,32.392,2.7,34.66L2.7,39.088L21.168,39.088L21.168,34.3L9.972,34.3Q10.2987,34,10.6204,33.7ZM20.568,34.9L9.972,34.9L9.56616,33.8581Q11.3209,32.2466,12.9317,30.6357Q14.5355,29.032,15.8176,27.5362Q16.7008,26.5117,17.5318,25.3624Q18.3492,24.232,18.9573,23.0157Q19.5627,21.8051,19.9254,20.5441Q20.28,19.3114,20.28,18.064Q20.28,16.2045,19.6785,14.7677Q19.0829,13.3449,17.9961,12.3733Q16.9028,11.3959,15.2956,10.877Q13.6575,10.348,11.592,10.348Q9.53375,10.348,7.36181,11.1065Q5.33944,11.8127,3.67522,12.8105L3.82896,16.244Q5.12602,15.4801,6.55696,14.9939Q8.50485,14.332,10.116,14.332Q11.2156,14.332,12.167,14.6293Q13.1295,14.9301,13.86,15.478Q14.6187,16.047,15.0419,16.8722Q15.468,17.7031,15.468,18.712Q15.468,20.4889,14.4012,22.3897Q13.3842,24.2017,11.7241,26.1939Q9.80169,28.4427,7.62602,30.6365Q5.54597,32.7339,3.3,34.9139L3.3,38.488L20.568,38.488L20.568,34.9Z" fill-rule="evenodd" fill="#008BD6" fill-opacity="1"/></g></svg>