<svg xmlns="http://www.w3.org/2000/svg" xmlns:xlink="http://www.w3.org/1999/xlink" fill="none" version="1.1" width="24" height="48" viewBox="0 0 24 48"><g><path d="M12.6,34.156L0.288,34.156L0.288,29.872L10.62,10.468L18.72,10.468L18.72,29.26L23.364,29.26L23.364,34.156L18.72,34.156L18.72,39.088L12.6,39.088L12.6,34.156ZM12.78,29.296L12.78,16.228L6.12,29.296L12.78,29.296Z" fill="#FFFFFF" fill-opacity="1"/><path d="M12.6,34.756L12.6,34.156L0.288,34.156L0.288,29.872L10.62,10.468L18.72,10.468L18.72,29.26L23.364,29.26L23.364,34.156L18.72,34.156L18.72,39.088L12.6,39.088L12.6,34.756ZM13.2,38.488L13.2,33.556L0.888,33.556L0.888,30.0218L10.9803,11.068L18.12,11.068L18.12,29.86L22.764,29.86L22.764,33.556L18.12,33.556L18.12,38.488L13.2,38.488ZM5.14079,29.896L13.38,29.896L13.38,16.228L12.2454,15.9556L5.14079,29.896ZM12.78,17.5494L12.78,29.296L6.12,29.296L6.42579,28.696L12.18,17.4053L12.78,16.228L12.78,17.5494Z" fill-rule="evenodd" fill="#008BD6" fill-opacity="1"/></g></svg>