<svg xmlns="http://www.w3.org/2000/svg" xmlns:xlink="http://www.w3.org/1999/xlink" fill="none" version="1.1" width="399.9999694824219" height="280" viewBox="0 0 399.9999694824219 280"><defs><clipPath id="master_svg0_37_07115"><rect x="0" y="0" width="399.9999694824219" height="280" rx="0"/></clipPath><linearGradient x1="0.5" y1="-0.08966745436191559" x2="0.5" y2="0.38024431467056274" id="master_svg1_37_06001"><stop offset="0%" stop-color="#BEE0FF" stop-opacity="1"/><stop offset="99.99995231628418%" stop-color="#E8F5FF" stop-opacity="0"/></linearGradient><mask id="master_svg2_37_07121" style="mask-type:alpha" maskUnits="userSpaceOnUse"><g><ellipse cx="199.12498474121094" cy="290.63206481933594" rx="199.99998474121094" ry="199.99998474121094" fill="#FFFFFF" fill-opacity="1"/></g></mask><linearGradient x1="0.5584617257118225" y1="0.2931847870349884" x2="0.5584617257118225" y2="1.7742047309875488" id="master_svg3_37_06005"><stop offset="0%" stop-color="#BEE0FF" stop-opacity="0.2922807037830353"/><stop offset="100%" stop-color="#3E92FF" stop-opacity="1"/></linearGradient><mask id="master_svg4_37_07124" style="mask-type:alpha" maskUnits="userSpaceOnUse"><g><ellipse cx="199.12498474121094" cy="290.63206481933594" rx="199.99998474121094" ry="199.99998474121094" fill="#FFFFFF" fill-opacity="1"/></g></mask><linearGradient x1="0.13944417238235474" y1="-0.022289687767624855" x2="1.2647639513015747" y2="1.5412002801895142" id="master_svg5_37_05943"><stop offset="0.05540114361792803%" stop-color="#E8F5FF" stop-opacity="0.2005615234375"/><stop offset="100%" stop-color="#BEE0FF" stop-opacity="1"/></linearGradient><mask id="master_svg6_37_07127" style="mask-type:alpha" maskUnits="userSpaceOnUse"><g><ellipse cx="199.12498474121094" cy="290.63206481933594" rx="199.99998474121094" ry="199.99998474121094" fill="#FFFFFF" fill-opacity="1"/></g></mask><linearGradient x1="0.5" y1="-0.4810737073421478" x2="0.5" y2="1" id="master_svg7_37_06010"><stop offset="0%" stop-color="#BEE0FF" stop-opacity="1"/><stop offset="99.94459748268127%" stop-color="#E8F5FF" stop-opacity="0.2005615234375"/></linearGradient><mask id="master_svg8_37_07130" style="mask-type:alpha" maskUnits="userSpaceOnUse"><g><ellipse cx="199.12498474121094" cy="290.63206481933594" rx="199.99998474121094" ry="199.99998474121094" fill="#FFFFFF" fill-opacity="1"/></g></mask><linearGradient x1="-0.37942466139793396" y1="0.5000000596046448" x2="0.706787645816803" y2="0.5" id="master_svg9_37_06016"><stop offset="0%" stop-color="#BEE0FF" stop-opacity="1"/><stop offset="99.94459748268127%" stop-color="#E8F5FF" stop-opacity="0.2005615234375"/></linearGradient><mask id="master_svga_37_07133" style="mask-type:alpha" maskUnits="userSpaceOnUse"><g><ellipse cx="199.12498474121094" cy="290.63206481933594" rx="199.99998474121094" ry="199.99998474121094" fill="#FFFFFF" fill-opacity="1"/></g></mask><linearGradient x1="0.5" y1="-0.4089990556240082" x2="0.42011240124702454" y2="1.6099313497543335" id="master_svgb_37_06020"><stop offset="0.05540114361792803%" stop-color="#E8F5FF" stop-opacity="0.2005615234375"/><stop offset="100%" stop-color="#BEE0FF" stop-opacity="1"/></linearGradient><linearGradient x1="0.9620423316955566" y1="0.3601899743080139" x2="0.12047256529331207" y2="0.6076537370681763" id="master_svgc_37_05934"><stop offset="0%" stop-color="#E8F5FF" stop-opacity="0"/><stop offset="99.9976098537445%" stop-color="#93C9FF" stop-opacity="1"/></linearGradient><linearGradient x1="0.950972855091095" y1="0.5" x2="0" y2="0.5" id="master_svgd_37_05928"><stop offset="0%" stop-color="#BEE0FF" stop-opacity="1"/><stop offset="100%" stop-color="#E8F5FF" stop-opacity="1"/></linearGradient><linearGradient x1="0.025969864800572395" y1="0.5315315127372742" x2="0.9745181798934937" y2="0.46485665440559387" id="master_svge_37_08223"><stop offset="4.285714402794838%" stop-color="#12A2F0" stop-opacity="1"/><stop offset="100%" stop-color="#BEE0FF" stop-opacity="1"/></linearGradient><linearGradient x1="0.5" y1="1.0346139669418335" x2="0.5" y2="0.022000577300786972" id="master_svgf_37_05937"><stop offset="0%" stop-color="#E8F5FF" stop-opacity="1"/><stop offset="99.9976098537445%" stop-color="#93C9FF" stop-opacity="1"/></linearGradient><linearGradient x1="0.5" y1="1" x2="0.5" y2="-0.3432522714138031" id="master_svgg_37_05925"><stop offset="0%" stop-color="#E8F5FF" stop-opacity="1"/><stop offset="99.9976098537445%" stop-color="#93C9FF" stop-opacity="1"/></linearGradient><linearGradient x1="1.0897554159164429" y1="0.8553087711334229" x2="-0.49753522872924805" y2="0.006458312273025513" id="master_svgh_37_08297"><stop offset="0.04310874792281538%" stop-color="#93C9FF" stop-opacity="1"/><stop offset="100%" stop-color="#159AE2" stop-opacity="1"/></linearGradient><linearGradient x1="1.0897554159164429" y1="0.8553087711334229" x2="-0.742193341255188" y2="-0.13262157142162323" id="master_svgi_37_08291"><stop offset="0.04310874792281538%" stop-color="#93C9FF" stop-opacity="1"/><stop offset="100%" stop-color="#12A2F0" stop-opacity="1"/></linearGradient><linearGradient x1="0.9158391356468201" y1="1" x2="-0.2033664882183075" y2="-0.19452503323554993" id="master_svgj_37_08303"><stop offset="0.04310874792281538%" stop-color="#93C9FF" stop-opacity="1"/><stop offset="100%" stop-color="#12A2F0" stop-opacity="1"/></linearGradient><linearGradient x1="0.9042141437530518" y1="1.0363136529922485" x2="-0.31369584798812866" y2="-0.3354220390319824" id="master_svgk_37_08317"><stop offset="0.04310874792281538%" stop-color="#93C9FF" stop-opacity="1"/><stop offset="100%" stop-color="#12A2F0" stop-opacity="1"/></linearGradient><linearGradient x1="1" y1="1" x2="0.18400470912456512" y2="0" id="master_svgl_37_08341"><stop offset="0%" stop-color="#1471FF" stop-opacity="0.49000000953674316"/><stop offset="97.14285731315613%" stop-color="#159AE2" stop-opacity="1"/></linearGradient><linearGradient x1="0.5" y1="0.22574609518051147" x2="0.14249341189861298" y2="1.4169002771377563" id="master_svgm_37_07651"><stop offset="0%" stop-color="#1471FE" stop-opacity="0"/><stop offset="100%" stop-color="#008BD6" stop-opacity="1"/></linearGradient><linearGradient x1="0.41086438298225403" y1="0.5898366570472717" x2="0.938997745513916" y2="1.1479928493499756" id="master_svgn_37_07845"><stop offset="0%" stop-color="#008BD6" stop-opacity="1"/><stop offset="100%" stop-color="#159AE2" stop-opacity="1"/></linearGradient><linearGradient x1="0.6830299496650696" y1="0.5" x2="0.2678961455821991" y2="-0.18035754561424255" id="master_svgo_37_07571"><stop offset="0%" stop-color="#008BD6" stop-opacity="1"/><stop offset="100%" stop-color="#008BD6" stop-opacity="1"/></linearGradient><linearGradient x1="1.412462830543518" y1="0.44278451800346375" x2="-0.36718544363975525" y2="0.5404428243637085" id="master_svgp_37_07625"><stop offset="0%" stop-color="#008BD6" stop-opacity="1"/><stop offset="99.95689392089844%" stop-color="#93C9FF" stop-opacity="1"/></linearGradient><linearGradient x1="0.7410463094711304" y1="0.5" x2="0.19432450830936432" y2="0.41234418749809265" id="master_svgq_37_07579"><stop offset="0%" stop-color="#008BD6" stop-opacity="1"/><stop offset="100%" stop-color="#008BD6" stop-opacity="1"/></linearGradient><linearGradient x1="0.6817071437835693" y1="-0.23234906792640686" x2="0.6817071437835693" y2="2.51239275932312" id="master_svgr_37_08241"><stop offset="0.04310874792281538%" stop-color="#93C9FF" stop-opacity="1"/><stop offset="100%" stop-color="#159AE2" stop-opacity="1"/></linearGradient><linearGradient x1="0.23183825612068176" y1="0.5249081254005432" x2="2.204005718231201" y2="0.5093111395835876" id="master_svgs_37_08235"><stop offset="0.04310874792281538%" stop-color="#93C9FF" stop-opacity="1"/><stop offset="100%" stop-color="#12A2F0" stop-opacity="1"/></linearGradient><linearGradient x1="0.5" y1="-0.16090275347232819" x2="0.5397171378135681" y2="1.3587350845336914" id="master_svgt_37_08203"><stop offset="0%" stop-color="#159AE2" stop-opacity="1"/><stop offset="99.95689392089844%" stop-color="#9EDDFF" stop-opacity="1"/></linearGradient><linearGradient x1="0.7020891904830933" y1="0.4394654631614685" x2="-0.15508833527565002" y2="1.1700620651245117" id="master_svgu_37_08247"><stop offset="0.04310874792281538%" stop-color="#93C9FF" stop-opacity="1"/><stop offset="100%" stop-color="#12A2F0" stop-opacity="1"/></linearGradient><linearGradient x1="-0.2591058909893036" y1="0.5503706336021423" x2="1.9934214353561401" y2="0.45342913269996643" id="master_svgv_37_08311"><stop offset="0.04310874792281538%" stop-color="#93C9FF" stop-opacity="1"/><stop offset="100%" stop-color="#159AE2" stop-opacity="1"/></linearGradient><linearGradient x1="0.8534164428710938" y1="1" x2="0.14658358693122864" y2="0" id="master_svgw_37_08271"><stop offset="0%" stop-color="#93C9FF" stop-opacity="1"/><stop offset="100%" stop-color="#159AE2" stop-opacity="1"/></linearGradient><linearGradient x1="0.4882398545742035" y1="1" x2="0.5117601156234741" y2="0" id="master_svgx_37_05964"><stop offset="0%" stop-color="#93C9FF" stop-opacity="1"/><stop offset="99.96986389160156%" stop-color="#1471FF" stop-opacity="0.5962255597114563"/></linearGradient><linearGradient x1="0.13737034797668457" y1="1" x2="0.8626296520233154" y2="0" id="master_svgy_37_05992"><stop offset="0%" stop-color="#93C9FF" stop-opacity="1"/><stop offset="99.96986389160156%" stop-color="#1471FF" stop-opacity="0.5962255597114563"/></linearGradient><linearGradient x1="0" y1="0.5516323447227478" x2="1" y2="0.4483676254749298" id="master_svgz_37_08253"><stop offset="0%" stop-color="#93C9FF" stop-opacity="1"/><stop offset="99.96986389160156%" stop-color="#159AE2" stop-opacity="1"/></linearGradient><linearGradient x1="0" y1="0.8504190444946289" x2="1" y2="0.1495809704065323" id="master_svg10_37_05950"><stop offset="0%" stop-color="#93C9FF" stop-opacity="1"/><stop offset="99.96986389160156%" stop-color="#1471FF" stop-opacity="0.5962255597114563"/></linearGradient><linearGradient x1="0.014917095191776752" y1="1" x2="0.9850829243659973" y2="0" id="master_svg11_37_08025"><stop offset="2.142857201397419%" stop-color="#6CCBFF" stop-opacity="1"/><stop offset="99.96986389160156%" stop-color="#12A2F0" stop-opacity="1"/></linearGradient><linearGradient x1="0.014917095191776752" y1="1" x2="0.9850829243659973" y2="0" id="master_svg12_37_08025"><stop offset="2.142857201397419%" stop-color="#6CCBFF" stop-opacity="1"/><stop offset="99.96986389160156%" stop-color="#12A2F0" stop-opacity="1"/></linearGradient></defs><g clip-path="url(#master_svg0_37_07115)"><g><g><g><g><ellipse cx="199.12498474121094" cy="290.62498474121094" rx="199.99998474121094" ry="199.99998474121094" fill="url(#master_svg1_37_06001)" fill-opacity="1"/></g><g mask="url(#master_svg2_37_07121)"><g transform="matrix(0.9612616896629333,0.27563735842704773,-0.27563735842704773,0.9612616896629333,31.499127339302504,-61.363764932888444)" style="opacity:0.30000001192092896;"><ellipse cx="253.76149559020996" cy="95.99746322631836" rx="19.69899559020996" ry="14.61538314819336" fill="url(#master_svg3_37_06005)" fill-opacity="1"/></g></g><g mask="url(#master_svg4_37_07124)"><g transform="matrix(0.9961947202682495,-0.08715575188398361,0.08715574443340302,0.9961947202682495,-14.520525260184513,17.814558567857603)" style="opacity:0.800000011920929;"><ellipse cx="221.6329402923584" cy="195.96381378173828" rx="24.8829402923584" ry="20.76923370361328" fill="url(#master_svg5_37_05943)" fill-opacity="1"/></g></g><g mask="url(#master_svg6_37_07127)"><g transform="matrix(0.7660444378852844,-0.6427876353263855,0.6427876353263855,0.7660444378852844,-40.79002768242208,233.31949660867394)"><ellipse cx="307.0480761528015" cy="181.15611839294434" rx="6.923076152801514" ry="8.461538314819336" fill="url(#master_svg7_37_06010)" fill-opacity="1"/></g></g><g mask="url(#master_svg8_37_07130)"><g transform="matrix(0.7660444378852844,-0.6427876353263855,0.6427876353263855,0.7660444378852844,-11.514535990296281,220.7532454276079)"><ellipse cx="310.0874128341675" cy="141.57919692993164" rx="12.58741283416748" ry="15.38461685180664" fill="url(#master_svg9_37_06016)" fill-opacity="1"/></g></g><g mask="url(#master_svga_37_07133)"><g transform="matrix(0.8660253882408142,0.5,-0.5,0.8660253882408142,95.61926779150963,-22.341797632558155)"><ellipse cx="99.08974361419678" cy="176.48784828186035" rx="9.589743614196777" ry="9.230768203735352" fill="url(#master_svgb_37_06020)" fill-opacity="1"/></g></g><g><g><g><path d="M266.8653755187988,136.80396931152345L273.79458551879884,140.75566931152343L302.0771755187988,124.61594931152344L295.14797551879883,120.66416931152344L266.8653755187988,136.80396931152345Z" fill="url(#master_svgc_37_05934)" fill-opacity="1"/></g><g><path d="M273.44932551879884,2.3516693115234375L280.3785755187988,6.303429311523438L273.7945955187988,10.051179311523438L266.8653755187988,6.099419311523437L273.44932551879884,2.3516693115234375Z" fill="url(#master_svgd_37_05928)" fill-opacity="1"/></g><g><path d="M273.44932551879884,0.8516693115231647L280.3785755187988,4.803429311523438L273.7945955187988,8.551179311523438L266.8653755187995,4.599419311523437L273.44932551879884,0.8516693115231647Z" fill="url(#master_svge_37_08223)" fill-opacity="0.800000011920929"/></g><g><path d="M280.44932551879884,136.97266931152345L280.44932551879884,6.2266693115234375L273.8653755187988,9.974439311523437L273.8653755187988,140.72066931152344L280.44932551879884,136.97266931152345Z" fill="url(#master_svgf_37_05937)" fill-opacity="1"/></g><g><path d="M266.8653755187988,136.84766931152345L273.79458551879884,140.79966931152345L273.79458551879884,10.053439311523437L266.86537551879894,6.1016693115234375L266.8653755187988,136.84766931152345Z" fill="url(#master_svgg_37_05925)" fill-opacity="1"/></g></g><g><g style="opacity:0.4000000059604645;"><path d="M257.5391821484375,9.179195404052734L294.5929521484375,30.260395404052733L294.5929521484375,35.68299540405273L287.6794521484375,31.749695404052733L291.9245521484375,36.638095404052734L289.4539521484375,37.52239540405273L294.5929521484375,40.44619540405273L294.5929521484375,46.421695404052734L257.5391821484375,25.340495404052735L250.4134521484375,13.205795404052735L257.5391821484375,9.179195404052734Z" fill="url(#master_svgh_37_08297)" fill-opacity="1"/></g><g><path d="M255.5391821484375,9.179195404052757L292.5929521484375,30.260395404052733L292.5929521484375,35.68299540405273L285.6794521484375,31.749695404052733L289.9245521484375,36.638095404052734L287.4539521484375,37.52239540405273L292.5929521484375,40.44619540405273L292.5929521484375,46.421695404052734L255.5391821484375,25.340495404052735L248.4134521484375,13.205795404052735L255.5391821484375,9.179195404052757Z" fill="url(#master_svgi_37_08291)" fill-opacity="1"/></g></g><g transform="matrix(0.9961947202682495,0.08715572953224182,-0.08715574443340302,0.9961947202682495,3.8113333483363476,-22.314031794362847)"><g style="opacity:0.4000000059604645;"><path d="M288.25417654113767,76.233490234375L259.2558765411377,47.600290234375L260.5975065411377,42.593240234375L266.0080165411377,47.935590234375L263.2977465411377,42.371520234375L265.7978165411377,42.166240234374996L261.7759965411377,38.195060234375L263.2544265411377,32.677490234375L292.2527765411377,61.310690234375L295.8300765411377,74.278490234375L288.25417654113767,76.233490234375Z" fill="url(#master_svgj_37_08303)" fill-opacity="1"/></g><g><path d="M286.44167654113767,76.045990234375L257.4433765411377,47.412790234375L258.7850065411377,42.405740234375L264.1955165411377,47.748090234375L261.4852465411377,42.184020234375L263.9853165411377,41.978740234374996L259.9634965411377,38.007560234375L261.4419265411377,32.489990234375L290.4402765411377,61.123190234375L294.0175765411377,74.090990234375L286.44167654113767,76.045990234375Z" fill="url(#master_svgk_37_08317)" fill-opacity="1"/></g><g><path d="M268.19034654113767,48.648590234375C269.0985965411377,49.337230234375,269.7644465411377,49.048300234375,269.6775565411377,48.003240234375C269.59067654113767,46.958190234375,268.7839565411377,45.552760234375,267.8757065411377,44.864122234375C266.9674595411377,44.175486234375,266.30161304113767,44.464418534375,266.3884993311377,45.509470234375C266.4753856411377,46.554520234375,267.2821015411377,47.959960234375,268.19034654113767,48.648590234375Z" fill="url(#master_svgl_37_08341)" fill-opacity="1"/></g></g><g style="opacity:0.498678594827652;"><path d="M273.6649001484375,63.95094531152344L282.4470721484375,74.16696931152345C282.7706121484375,74.54336931152343,282.9485221484375,75.02326931152344,282.9485221484375,75.51956931152344C282.9485221484375,75.67706931152344,282.8208421484375,75.80476931152344,282.6633321484375,75.80476931152344C282.5802221484375,75.80476931152344,282.5012521484375,75.76846931152343,282.4470721484375,75.70546931152344L273.6649001484375,65.48940931152343C273.3413611484375,65.11303931152344,273.1634521484375,64.63317131152344,273.1634521484375,64.13685631152343C273.1634521484375,63.97935031152344,273.2911361484375,63.85166931152344,273.4486391484375,63.85166931152344C273.5317491484375,63.85166931152344,273.6107221484375,63.887920711523435,273.6649001484375,63.95094531152344Z" fill="#FFFFFF" fill-opacity="1"/></g><g style="opacity:0.498678594827652;"><path d="M272.3406721484375,62.47087931152344L271.5342031484375,61.51405571152344C271.4342081484375,61.39541861152344,271.2569701484375,61.380306511523436,271.1383326484375,61.480304411523434C271.0750013484375,61.53368131152344,271.0384521484375,61.61228731152344,271.0384521484375,61.695119311523435L271.0384521484375,62.183406311523434C271.0384521484375,62.36483931152344,271.1025816484375,62.54042931152344,271.2195111484375,62.679159311523435L272.0259791484375,63.63596931152344C272.1259721484375,63.75460931152344,272.3032121484375,63.76971931152344,272.4218521484375,63.66972931152344C272.4851821484375,63.616349311523436,272.5217321484375,63.53773931152344,272.5217321484375,63.45491931152344L272.5217321484375,62.96661931152344C272.5217321484375,62.785199311523435,272.4576021484375,62.60959931152344,272.3406721484375,62.47087931152344Z" fill="#FFFFFF" fill-opacity="1"/></g></g><g><g style="opacity:0.7959847450256348;"><path d="M237.19530297851563,130.431390625L276.2210029785156,111.880990625L229.21830297851562,91.900390625L210.12930297851562,131.861590625L237.19530297851563,130.431390625Z" fill="url(#master_svgm_37_07651)" fill-opacity="1"/></g><g><path d="M210.12410297851562,131.853790625L210.12410297851562,79.15359062499999L162.81680297851562,62.650390625L162.81680297851562,115.350590625L210.12410297851562,131.853790625Z" fill="url(#master_svgn_37_07845)" fill-opacity="1"/></g><g style="opacity:0.800000011920929;"><path d="M162.7718029785156,62.650390625L99.56680297851562,83.530890625L99.56680297851562,135.18419062499999L162.7718029785156,115.350590625L162.7718029785156,62.650390625Z" fill="url(#master_svgo_37_07571)" fill-opacity="1"/></g><g><path d="M162.7718029785156,62.650390625L210.07880297851563,79.15359062499999L146.87410297851562,100.034090625L99.56680297851562,83.530890625L162.7718029785156,62.650390625Z" fill="url(#master_svgp_37_07625)" fill-opacity="1"/></g><g style="opacity:0.7959847450256348;"><path d="M210.07880297851563,131.841090625L146.87410297851562,155.005190625L99.56680297851562,135.171490625L162.7718029785156,115.337890625L210.07880297851563,131.841090625Z" fill="url(#master_svgq_37_07579)" fill-opacity="1"/></g><g><path d="M99.56680297851562,135.178690625L146.87410297851562,155.012290625L146.87410297851562,100.02859062499999L99.56680297851698,83.525390625L99.56680297851562,135.178690625Z" fill="url(#master_svgr_37_08241)" fill-opacity="1"/></g><g><path d="M210.0843029785156,131.900390625L239.42360297851565,141.170950625L175.87100297851563,165.833290625L146.87930297851562,155.064490625L210.0843029785156,131.900390625Z" fill="url(#master_svgs_37_08235)" fill-opacity="1"/></g><g><path d="M170.64630297851562,148.321590625L146.87930297851562,155.149990625L146.87930297851562,100.166270625L170.64630297851562,93.337890625L170.64630297851562,148.321590625Z" fill="url(#master_svgt_37_08203)" fill-opacity="1"/></g><g><path d="M210.12930297851562,131.968290625L210.12930297851562,79.268150625L237.19530297851563,77.837890625L237.19530297851563,94.757090625L229.84010297851563,101.827790625L237.19530297851563,100.413890625L237.19530297851563,130.538090625L210.12930297851562,131.968290625Z" fill="url(#master_svgu_37_08247)" fill-opacity="1"/></g><g><path d="M224.12140297851562,108.016490625L210.0843029785156,79.212890625L146.87930297851562,100.093390625L160.91640297851563,128.897090625L224.12140297851562,108.016490625Z" fill="url(#master_svgv_37_08311)" fill-opacity="1"/></g><g><path d="M214.60606297851564,66.131059625C214.90114397851562,65.895414525,215.31637097851564,65.912065625,215.59119297851564,66.151829625L215.68716297851563,66.252142625L220.32699297851562,72.062390625C220.59209297851564,72.394360625,220.53788297851563,72.878380625,220.2059129785156,73.143480625C219.91082297851563,73.379130625,219.49560297851562,73.362480625,219.22078297851562,73.122710625L219.12481297851562,73.022400625L214.48497797851562,67.212160625C214.21987447851564,66.880182625,214.27409007851563,66.396159625,214.60606297851564,66.131059625Z" fill="url(#master_svgw_37_08271)" fill-opacity="1"/></g><g><path d="M233.85229297851564,50.525390625L233.99111297851562,50.525761916C234.36714297851563,50.560480125,234.65486297851564,50.860318625,234.68673297851564,51.223631625L234.68636297851563,51.362455625L232.72411297851562,72.615390625C232.68506297851562,73.03849062500001,232.31046297851563,73.349790625,231.88742797851563,73.310690625C231.51139197851563,73.27599062499999,231.22367037851564,72.976090625,231.19180297851562,72.612790625L231.19217857951563,72.473990625L233.1544229785156,51.221014625C233.18913297851563,50.844982625,233.48898297851562,50.557255925,233.85229297851564,50.525390625Z" fill="url(#master_svgx_37_05964)" fill-opacity="1"/></g><g><path d="M247.10547297851562,69.184230625C247.37357297851563,68.854665625,247.85806297851562,68.804828025,248.18763297851564,69.072916625C248.48057297851562,69.311217625,248.55250297851563,69.720504625,248.37658297851561,70.039980625L248.29893297851564,70.155060625L243.43278297851563,76.137110625C243.16469297851563,76.466670625,242.68020597851563,76.516510625,242.35063997851563,76.248420625C242.05769465851563,76.010120625,241.98576707851564,75.600830625,242.16168917851562,75.281360625L242.23932097851562,75.166280625L247.10547297851562,69.184230625Z" fill="url(#master_svgy_37_05992)" fill-opacity="1"/></g><g><path d="M263.2183029785156,82.048425525C263.6305029785156,81.945640025,264.0480029785156,82.196479625,264.1508029785156,82.608690625C264.24220297851565,82.975103625,264.05410297851563,83.345680625,263.7217029785156,83.495700625L263.59050297851564,83.541180625L249.0848199785156,87.158230625C248.67260997851562,87.261020625,248.2551179785156,87.010180625,248.15233197851563,86.597970625C248.06096707851563,86.231560625,248.24901397851562,85.860980625,248.58143297851564,85.710960625L248.71259897851562,85.665480625L263.2183029785156,82.048425525Z" fill="url(#master_svgz_37_08253)" fill-opacity="1"/></g></g><g><g style="opacity:0.6000000238418579;"><path d="M162.07104669189454,22.7477L179.82249669189454,22.7505C184.96539669189454,22.8457,187.70329669189454,25.1998,187.70329669189454,29.6708C187.70329669189454,34.2102,184.81899669189454,36.5662,179.40419669189453,36.5939C178.97929669189455,36.5961,178.63319669189454,36.2534,178.63099669189452,35.8286C178.62889669189454,35.4038,178.97149669189454,35.0576,179.39629669189452,35.0554C184.02659669189453,35.0317,186.16489669189454,33.2852,186.16489669189454,29.6708C186.16489669189454,26.0061,184.03019669189453,24.2625,179.40419669189453,24.2862L162.07104669189454,24.2862L161.93277669189453,24.2738C161.57392669189454,24.2087,161.30181669189454,23.8946,161.30181669189454,23.517C161.30181669189454,23.0921,161.64620669189452,22.7477,162.07104669189454,22.7477ZM185.44369669189453,0C193.24889669189452,0,197.34569669189455,3.03519,197.34569669189455,9.0172C197.34569669189455,14.9399,193.41899669189453,18.009,185.92669669189453,18.1344L185.44369669189453,18.1384L154.40302769189452,18.1384C153.97818769189453,18.1384,153.63379669189453,17.794,153.63379669189453,17.3691C153.63379669189453,16.9915,153.90590769189453,16.6774,154.26475969189454,16.6123L154.40302769189452,16.5999L185.44369669189453,16.5999C192.48089669189454,16.5999,195.80719669189455,14.1044,195.80719669189455,9.0172C195.80719669189455,4.00192,192.48219669189453,1.53846,185.44369669189453,1.53846C185.01879669189452,1.53846,184.67439669189454,1.19407,184.67439669189454,0.769231C184.67439669189454,0.344396,185.01879669189452,0,185.44369669189453,0ZM181.45459669189452,10.4461C181.87949669189453,10.4461,182.22389669189454,10.7905,182.22389669189454,11.2153C182.22389669189454,11.5929,181.95169669189454,11.907,181.59289669189454,11.9721L181.45459669189452,11.9845L162.07104669189454,11.9845C161.64620669189452,11.9845,161.30181669189454,11.6401,161.30181669189454,11.2153C161.30181669189454,10.8377,161.57392669189454,10.5236,161.93277669189453,10.4584L162.07104669189454,10.4461L181.45459669189452,10.4461Z" fill="url(#master_svg10_37_05950)" fill-opacity="1"/></g><g style="opacity:0.4000000059604645;"><path d="M44.12313269189453,83.1404L59.74239669189453,83.1429C64.26759669189454,83.2266,66.67659669189453,85.298,66.67659669189453,89.232C66.67659669189453,93.2261,64.13879669189453,95.29910000000001,59.37429669189453,95.3235C59.00049669189453,95.3254,58.695996691894536,95.0239,58.69399669189453,94.6501C58.692096691894534,94.27629999999999,58.99359669189453,93.9717,59.36739669189453,93.96979999999999C63.44149669189453,93.949,65.32299669189453,92.4122,65.32299669189453,89.232C65.32299669189453,86.0075,63.444696691894535,84.4733,59.37429669189453,84.4941L44.12313269189453,84.4941L44.00147069189453,84.4832C43.685727691894535,84.4259,43.44629669189453,84.1495,43.44629669189453,83.8173C43.44629669189453,83.4435,43.74932669189453,83.1404,44.12313269189453,83.1404ZM64.68839669189452,63.125C71.55609669189454,63.125,75.16079669189453,65.79562,75.16079669189453,71.05911C75.16079669189453,76.2704,71.70579669189453,78.9709,65.11339669189454,79.0812L64.68839669189452,79.0847L50.10271669189453,79.0847C49.72891669189453,79.0847,49.42588669189453,78.7817,49.42588669189453,78.4079C49.42588669189453,78.0756,49.66531669189453,77.7992,49.98105669189453,77.7419L50.10271669189453,77.731L64.68839669189452,77.731C70.88039669189453,77.731,73.80719669189453,75.5353,73.80719669189453,71.05911C73.80719669189453,66.64624,70.88149669189453,64.47867,64.68839669189452,64.47867C64.31459669189454,64.47867,64.01159669189454,64.17564,64.01159669189454,63.801839C64.01159669189454,63.428028,64.31459669189454,63.125,64.68839669189452,63.125ZM61.17849669189453,72.31635C61.55229669189453,72.31635,61.85529669189453,72.66074,61.85529669189453,73.08558C61.85529669189453,73.4632,61.615896691894534,73.7773,61.30019669189453,73.8424L61.17849669189453,73.8548L44.12313269189453,73.8548C43.74932669189453,73.8548,43.44629669189453,73.5104,43.44629669189453,73.08558C43.44629669189453,72.70795,43.685727691894535,72.39388,44.00147069189453,72.32874L44.12313269189453,72.31635L61.17849669189453,72.31635Z" fill="url(#master_svg11_37_08025)" fill-opacity="1"/></g><g style="opacity:0.4000000059604645;"><path d="M324.1752486918945,82.1373L336.67069669189453,82.13929999999999C340.2907966918945,82.2063,342.2180966918945,83.8634,342.2180966918945,87.0106C342.2180966918945,90.2059,340.1877966918945,91.8643,336.3761966918945,91.88380000000001C336.0771966918945,91.8853,335.83349669189454,91.64410000000001,335.8319966918945,91.3451C335.83049669189455,91.04599999999999,336.0715966918945,90.8024,336.3706966918945,90.8008C339.6299966918945,90.7842,341.13509669189455,89.5547,341.13509669189455,87.0106C341.13509669189455,84.431,339.6324966918945,83.2036,336.3761966918945,83.22030000000001L324.1752486918945,83.22030000000001L324.0779216918945,83.2116C323.8253296918945,83.1657,323.63379669189453,82.94460000000001,323.63379669189453,82.6788C323.63379669189453,82.3798,323.87622369189455,82.1373,324.1752486918945,82.1373ZM340.6274966918945,66.125C346.12169669189456,66.125,349.00539669189453,68.26149,349.00539669189453,72.47229C349.00539669189453,76.6413,346.2413966918945,78.8017,340.96749669189455,78.89L340.6274966918945,78.8928L324.20431069189453,78.8928C323.9052626918945,78.8928,323.6628352918945,78.6503,323.6628352918945,78.3513C323.6628352918945,78.0855,323.85439169189453,77.8644,324.1069836918945,77.8185L324.20431069189453,77.8098L340.6274966918945,77.8098C345.58099669189454,77.8098,347.92249669189454,76.05325,347.92249669189454,72.47229C347.92249669189454,68.94199,345.58189669189454,67.20794,340.6274966918945,67.20794C340.3283966918945,67.20794,340.08599669189454,66.965513,340.08599669189454,66.66647C340.08599669189454,66.367421,340.3283966918945,66.125,340.6274966918945,66.125ZM337.8194966918945,73.47807C338.11859669189454,73.47807,338.3609966918945,73.82247,338.3609966918945,74.24731C338.3609966918945,74.62494,338.16949669189455,74.93901,337.9168966918945,75.00415L337.8194966918945,75.01654L324.1752486918945,75.01654C323.87622369189455,75.01654,323.63379669189453,74.67214,323.63379669189453,74.24731C323.63379669189453,73.86967,323.8253296918945,73.5556,324.0779216918945,73.49047L324.1752486918945,73.47807L337.8194966918945,73.47807Z" fill="url(#master_svg12_37_08025)" fill-opacity="1"/></g></g></g></g></g></g></svg>