<svg xmlns="http://www.w3.org/2000/svg" xmlns:xlink="http://www.w3.org/1999/xlink" fill="none" version="1.1" width="24" height="48" viewBox="0 0 24 48"><g><path d="M11.016,39.808Q8.676,39.808,6.39,39.304Q4.104,38.8,2.088,37.72L3.708,33.22Q5.292,34.048,6.786,34.39Q8.28,34.732,9.972,34.732Q11.088,34.732,12.042,34.372Q12.996,34.012,13.698,33.364Q14.4,32.716,14.814,31.834Q15.228,30.952,15.228,29.908Q15.228,27.784,13.914,26.47Q12.6,25.156,10.044,25.156Q7.452,25.156,4.68,26.38L3.096,25.156L3.564,10.432L20.232,10.432L20.232,15.616L9.648,15.616L9.468,21.592Q10.332,21.376,11.178,21.25Q12.024,21.124,13.068,21.124Q14.976,21.124,16.56,21.736Q18.144,22.348,19.278,23.482Q20.412,24.616,21.042,26.236Q21.672,27.856,21.672,29.872Q21.672,32.176,20.898,34.012Q20.124,35.848,18.72,37.144Q17.316,38.44,15.354,39.124Q13.392,39.808,11.016,39.808Z" fill="#FFFFFF" fill-opacity="1"/><path d="M9.648,15.616L20.232,15.616L20.232,10.432L3.564,10.432L3.096,25.156L4.68,26.38Q7.452,25.156,10.044,25.156Q12.6,25.156,13.914,26.47Q15.228,27.784,15.228,29.908Q15.228,30.952,14.814,31.834Q14.4,32.716,13.698,33.364Q12.996,34.012,12.042,34.372Q11.088,34.732,9.972,34.732Q8.28,34.732,6.786,34.39Q5.54819,34.1066,4.24861,33.4897Q3.97964,33.362,3.708,33.22L3.50294,33.7896L2.088,37.72Q4.104,38.8,6.39,39.304Q8.676,39.808,11.016,39.808Q13.392,39.808,15.354,39.124Q17.316,38.44,18.72,37.144Q20.124,35.848,20.898,34.012Q21.672,32.176,21.672,29.872Q21.672,27.856,21.042,26.236Q20.412,24.616,19.278,23.482Q18.144,22.348,16.56,21.736Q14.976,21.124,13.068,21.124Q12.024,21.124,11.178,21.25Q10.629,21.3318,10.0725,21.4514Q9.77135,21.5162,9.468,21.592L9.48675,20.9696L9.648,15.616ZM2.83091,37.4277Q4.57296,38.289,6.51918,38.7181Q8.74135,39.208,11.016,39.208Q13.2904,39.208,15.1565,38.5574Q17.0007,37.9145,18.313,36.7031Q19.6216,35.4952,20.3451,33.7789Q21.072,32.0547,21.072,29.872Q21.072,27.9686,20.4828,26.4535Q19.8985,24.9511,18.8537,23.9063Q17.8094,22.862,16.3438,22.2957Q14.8641,21.724,13.068,21.724Q12.0684,21.724,11.2664,21.8435Q10.4492,21.9652,9.61352,22.1741L8.8444,22.3664L9.0658,15.016L19.632,15.016L19.632,11.032L4.14523,11.032L3.70544,24.8687L4.76754,25.6894Q7.48095,24.556,10.044,24.556Q12.8485,24.556,14.3383,26.0457Q15.828,27.5355,15.828,29.908Q15.828,31.0858,15.3571,32.0889Q14.8932,33.0772,14.105,33.8049Q13.3171,34.5321,12.2538,34.9334Q11.1974,35.332,9.972,35.332Q8.21218,35.332,6.65211,34.9749Q5.37577,34.6827,4.04444,34.0568L2.83091,37.4277Z" fill-rule="evenodd" fill="#008BD6" fill-opacity="1"/></g></svg>