<svg xmlns="http://www.w3.org/2000/svg" xmlns:xlink="http://www.w3.org/1999/xlink" fill="none" version="1.1" width="24" height="48" viewBox="0 0 24 48"><g><path d="M5.472,39.808Q7.2,32.644,9.918,26.47Q12.636,20.296,15.804,15.616L2.988,15.616L2.988,10.468L22.356,10.468L22.356,14.932Q20.772,17.272,19.296,20.224Q17.82,23.176,16.56,26.416Q15.3,29.656,14.292,33.076Q13.284,36.496,12.672,39.808L5.472,39.808Z" fill="#FFFFFF" fill-opacity="1"/><path d="M15.4037,16.216Q12.4635,20.6878,9.918,26.47Q7.31415,32.3847,5.61889,39.208Q5.54457,39.5071,5.472,39.808L12.672,39.808Q13.284,36.496,14.292,33.076Q15.3,29.656,16.56,26.416Q17.82,23.176,19.296,20.224Q20.772,17.272,22.356,14.932L22.356,10.468L2.988,10.468L2.988,15.616L15.804,15.616Q15.603,15.913,15.4037,16.216ZM3.588,15.016L16.9347,15.016L16.3009,15.9523Q13.1633,20.5874,10.4671,26.7118Q7.91163,32.5167,6.23726,39.208L12.1748,39.208Q12.7742,36.1032,13.7165,32.9064Q14.7316,29.4621,16.0008,26.1985Q17.2709,22.9326,18.7593,19.9557Q20.205,17.0643,21.756,14.7488L21.756,11.068L3.588,11.068L3.588,15.016Z" fill-rule="evenodd" fill="#008BD6" fill-opacity="1"/></g></svg>