<svg xmlns="http://www.w3.org/2000/svg" xmlns:xlink="http://www.w3.org/1999/xlink" fill="none" version="1.1" width="12" height="13.333333969116211" viewBox="0 0 12 13.333333969116211"><g><path d="M2.60064,0L8.76945,0C9.68291,0,10.1444,0.0891162,10.6246,0.345924C11.0667,0.582364,11.4176,0.933317,11.6541,1.37542C11.8997,1.83473,11.9919,2.27693,11.9995,3.11393L12,3.23055L12,9.43612C12,10.3496,11.9109,11.4777,11.6541,11.9579C11.4176,12.4,11.0667,12.751,10.6246,12.9874C10.1653,13.2331,9.72307,13.3253,8.88607,13.3328L8.76945,13.3333L2.44333,13.3333C1.12091,13.3333,0.0438589,12.2827,0.001306,10.9707L0,10.89L0,10C0,9.63181,0.298477,9.33333,0.666667,9.33333C1.03486,9.33333,1.33333,9.63181,1.33333,10L1.33333,10.89C1.33333,11.4826,1.79772,11.9667,2.38243,11.9984L2.44333,12L8.86376,11.9997L9.03639,11.9972L9.18942,11.9919L9.32496,11.9838C9.53744,11.9677,9.68578,11.9388,9.81371,11.8932L9.88838,11.8637C9.92483,11.848,9.96024,11.8307,9.99578,11.8117C10.2055,11.6995,10.3662,11.5389,10.4783,11.3291C10.4973,11.2936,10.5147,11.2582,10.5304,11.2217L10.5598,11.147C10.6055,11.0191,10.6344,10.8708,10.6505,10.6583L10.6586,10.5228L10.6638,10.3697L10.6664,10.1971L10.6664,3.13624L10.6638,2.96361L10.6586,2.81058L10.6505,2.67504C10.6344,2.46256,10.6055,2.31422,10.5598,2.18629L10.5304,2.11162C10.5147,2.07517,10.4973,2.03976,10.4783,2.00422C10.3662,1.79447,10.2055,1.63385,9.99578,1.52167C9.96024,1.50267,9.92483,1.48534,9.88838,1.46959L9.81371,1.44017C9.68578,1.39452,9.53744,1.36561,9.32496,1.34954L9.18942,1.34141L9.03639,1.33617L8.86376,1.33364L2.60064,1.33333C1.9226,1.33333,1.36892,1.86582,1.33498,2.53542L1.33333,2.60064L1.33333,3.33333C1.33333,3.70152,1.03486,4,0.666667,4C0.298477,4,0,3.70152,0,3.33333L0,2.60064C0,1.19197,1.11999,0.0448831,2.51809,0.00128545L2.60064,0ZM6.13807,3.86193C5.87772,3.60158,5.45561,3.60158,5.19526,3.86193C4.93491,4.12228,4.93491,4.54439,5.19526,4.80474L6.39052,6L0.666667,6C0.298477,6,0,6.29848,0,6.66667C0,7.03486,0.298477,7.33333,0.666667,7.33333L6.39052,7.33333L5.19526,8.5286C4.93491,8.78895,4.93491,9.21106,5.19526,9.47141C5.45561,9.73175,5.87772,9.73175,6.13807,9.47141L8.47141,7.13807C8.73175,6.87772,8.73175,6.45561,8.47141,6.19526L6.13807,3.86193Z" fill-rule="evenodd" fill="#000000" fill-opacity="0.6499999761581421"/></g></svg>