<svg xmlns="http://www.w3.org/2000/svg" xmlns:xlink="http://www.w3.org/1999/xlink" version="1.1" width="13.333251953125" height="13.458251953125" viewBox="0 0 13.333251953125 13.458251953125"><g><path d="M10.1752,0.486472C10.1752,0.486472,11.5879,1.89913,11.5879,1.89913C12.2388,2.55,12.2388,3.60528,11.5874,4.25667C11.5874,4.25667,5.16459,10.6402,5.16459,10.6402C5.16459,10.6402,5.06487,10.737,5.06487,10.737C4.97415,10.822,4.90607,10.8752,4.82132,10.9281C4.7013,11.0029,4.57429,11.0553,4.43645,11.087C4.30667,11.1168,4.19744,11.1252,3.99013,11.1252C3.99013,11.1252,2.03148,11.1252,2.03148,11.1252C1.79537,11.1252,1.63181,11.0936,1.46029,11.0019C1.28979,10.9107,1.152,10.7729,1.06081,10.6024C0.969084,10.4309,0.9375,10.2673,0.9375,10.0312C0.9375,10.0312,0.937501,8.48467,0.937501,8.48467C0.937501,8.48467,0.938708,8.31553,0.938708,8.31553C0.939125,8.2897,0.939657,8.26497,0.940317,8.24121C0.940317,8.24121,0.945883,8.10924,0.945883,8.10924C0.95436,7.96643,0.970141,7.85847,0.997061,7.74128C1.04385,7.53758,1.12036,7.3523,1.23092,7.17494C1.27635,7.10205,1.32249,7.03651,1.37968,6.96594C1.37968,6.96594,1.45427,6.87806,1.45427,6.87806C1.46781,6.86275,1.48195,6.84704,1.49678,6.83083C1.49678,6.83083,1.59473,6.72682,1.59473,6.72682C1.63058,6.68962,1.66985,6.64965,1.71321,6.6061C1.71321,6.6061,7.81719,0.490618,7.81719,0.490618C8.46663,-0.161685,9.5219,-0.164004,10.1752,0.486472ZM10.6451,2.84194C10.6451,2.84194,9.23347,1.43032,9.23347,1.43032C9.10301,1.30043,8.89196,1.30089,8.76207,1.43135C8.76207,1.43135,7.88979,2.30749,7.88979,2.30749C7.88979,2.30749,9.76839,4.18609,9.76839,4.18609C9.76839,4.18609,10.6441,3.31438,10.6441,3.31438C10.7753,3.18317,10.7753,2.97211,10.6451,2.84194ZM2.61544,7.58984C2.61544,7.58984,2.51383,7.6946,2.51383,7.6946C2.51383,7.6946,2.44423,7.77104,2.44423,7.77104C2.44423,7.77104,2.41083,7.81136,2.41083,7.81136C2.41083,7.81136,2.38452,7.84674,2.38452,7.84674C2.38452,7.84674,2.36243,7.88025,2.36243,7.88025C2.33001,7.93225,2.31027,7.98006,2.29655,8.03978C2.29655,8.03978,2.28521,8.10014,2.28521,8.10014C2.28521,8.10014,2.27967,8.1475,2.27967,8.1475C2.27967,8.1475,2.2756,8.20545,2.2756,8.20545C2.2756,8.20545,2.27195,8.32138,2.27195,8.32138C2.27195,8.32138,2.27084,9.79186,2.27084,9.79186C2.27084,9.79186,4.05392,9.79166,4.05392,9.79166C4.05392,9.79166,4.09519,9.79099,4.09519,9.79099C4.09519,9.79099,4.12582,9.78903,4.12582,9.78903C4.12582,9.78903,4.16194,9.75631,4.16194,9.75631C4.16194,9.75631,9.05969,4.8916,9.05969,4.8916C9.05969,4.8916,7.18425,3.01617,7.18425,3.01617C7.18425,3.01617,2.61544,7.58984,2.61544,7.58984ZM0,12.7917L0,12.7917Q0,12.726,0.0128098,12.6616Q0.0256196,12.5972,0.050747,12.5365Q0.0758743,12.4759,0.112354,12.4213Q0.148833,12.3667,0.195262,12.3203Q0.241691,12.2738,0.296286,12.2374Q0.350882,12.2009,0.411544,12.1757Q0.472207,12.1506,0.536606,12.1378Q0.601006,12.125,0.666667,12.125L12.6667,12.125Q12.7323,12.125,12.7967,12.1378Q12.8611,12.1506,12.9218,12.1757Q12.9825,12.2009,13.037,12.2374Q13.0916,12.2738,13.1381,12.3203Q13.1845,12.3667,13.221,12.4213Q13.2575,12.4759,13.2826,12.5365Q13.3077,12.5972,13.3205,12.6616Q13.3333,12.726,13.3333,12.7917L13.3333,12.7917Q13.3333,12.8573,13.3205,12.9217Q13.3077,12.9861,13.2826,13.0468Q13.2575,13.1074,13.221,13.162Q13.1845,13.2166,13.1381,13.2631Q13.0916,13.3095,13.037,13.346Q12.9825,13.3825,12.9218,13.4076Q12.8611,13.4327,12.7967,13.4455Q12.7323,13.4583,12.6667,13.4583L0.666667,13.4583Q0.601006,13.4583,0.536606,13.4455Q0.472207,13.4327,0.411544,13.4076Q0.350882,13.3825,0.296287,13.346Q0.241691,13.3095,0.195262,13.2631Q0.148833,13.2166,0.112354,13.162Q0.0758743,13.1075,0.050747,13.0468Q0.0256196,12.9861,0.0128098,12.9217Q0,12.8573,0,12.7917Z" fill-opacity="1"/></g></svg>