<svg xmlns="http://www.w3.org/2000/svg" xmlns:xlink="http://www.w3.org/1999/xlink" version="1.1" width="14" height="14" viewBox="0 0 14 14"><defs><clipPath id="master_svg0_2_10381/2_07131"><rect x="0" y="0" width="14" height="14" rx="0"/></clipPath></defs><g clip-path="url(#master_svg0_2_10381/2_07131)"><g><path d="M7.46838,1.375C7.46838,1.375,6.53088,1.375,6.53088,1.375C6.44755,1.375,6.40588,1.4166667,6.40588,1.5C6.40588,1.5,6.40588,6.40625,6.40588,6.40625C6.40588,6.40625,1.75,6.40625,1.75,6.40625C1.6666667,6.40625,1.625,6.44792,1.625,6.53125C1.625,6.53125,1.625,7.46875,1.625,7.46875C1.625,7.55208,1.6666667,7.59375,1.75,7.59375C1.75,7.59375,6.40588,7.59375,6.40588,7.59375C6.40588,7.59375,6.40588,12.5,6.40588,12.5C6.40588,12.5833,6.44755,12.625,6.53088,12.625C6.53088,12.625,7.46838,12.625,7.46838,12.625C7.55172,12.625,7.59338,12.5833,7.59338,12.5C7.59338,12.5,7.59338,7.59375,7.59338,7.59375C7.59338,7.59375,12.25,7.59375,12.25,7.59375C12.3333,7.59375,12.375,7.55208,12.375,7.46875C12.375,7.46875,12.375,6.53125,12.375,6.53125C12.375,6.44792,12.3333,6.40625,12.25,6.40625C12.25,6.40625,7.59338,6.40625,7.59338,6.40625C7.59338,6.40625,7.59338,1.5,7.59338,1.5C7.59338,1.4166667,7.55172,1.375,7.46838,1.375Z" fill-opacity="1"/></g></g></svg>