<svg xmlns="http://www.w3.org/2000/svg" xmlns:xlink="http://www.w3.org/1999/xlink" version="1.1" width="14" height="14" viewBox="0 0 14 14"><defs><clipPath id="master_svg0_2_8113"><rect x="0" y="0" width="14" height="14" rx="0"/></clipPath></defs><g clip-path="url(#master_svg0_2_8113)"><g><path d="M13.41679609375,7.00016609375Q13.41679609375,7.15768609375,13.40909609375,7.31501609375Q13.40139609375,7.47234609375,13.38589609375,7.62910609375Q13.37049609375,7.78586609375,13.34739609375,7.94168609375Q13.32429609375,8.09749609375,13.29349609375,8.25199609375Q13.26279609375,8.40648609375,13.22449609375,8.55928609375Q13.18629609375,8.71208609375,13.14049609375,8.86282609375Q13.09479609375,9.01355609375,13.04169609375,9.16187609375Q12.98869609375,9.31018609375,12.92839609375,9.45571609375Q12.86809609375,9.60124609375,12.80079609375,9.74363609375Q12.73339609375,9.88603609375,12.65919609375,10.02495609375Q12.58489609375,10.16387609375,12.50389609375,10.29898609375Q12.42289609375,10.43409609375,12.33539609375,10.56506609375Q12.24789609375,10.69599609375,12.15409609375,10.82259609375Q12.06019609375,10.94909609375,11.96029609375,11.07089609375Q11.86039609375,11.19259609375,11.75459609375,11.30929609375Q11.64879609375,11.42599609375,11.53739609375,11.53739609375Q11.42609609375,11.64879609375,11.30929609375,11.75459609375Q11.19259609375,11.86039609375,11.07089609375,11.96029609375Q10.94909609375,12.06019609375,10.82259609375,12.15409609375Q10.69599609375,12.24789609375,10.56507609375,12.33539609375Q10.43409609375,12.42289609375,10.29898609375,12.50389609375Q10.16387609375,12.58489609375,10.02495609375,12.65919609375Q9.88603609375,12.73339609375,9.74363609375,12.80079609375Q9.60124609375,12.86809609375,9.45571609375,12.92839609375Q9.31018609375,12.98869609375,9.16187609375,13.04169609375Q9.01356609375,13.09479609375,8.86282609375,13.14049609375Q8.71208609375,13.18629609375,8.55928609375,13.22449609375Q8.40648609375,13.26279609375,8.25199609375,13.29349609375Q8.09749609375,13.32429609375,7.94168609375,13.34739609375Q7.78586609375,13.37049609375,7.62910609375,13.38589609375Q7.47234609375,13.40139609375,7.31501609375,13.40909609375Q7.15768609375,13.41679609375,7.00016609375,13.41679609375Q6.84264609375,13.41679609375,6.68531609375,13.40909609375Q6.52797609375,13.40139609375,6.37121609375,13.38589609375Q6.21445609375,13.37049609375,6.05864609375,13.34739609375Q5.90282609375,13.32429609375,5.74833609375,13.29349609375Q5.59383609375,13.26279609375,5.44103609375,13.22449609375Q5.28823609375,13.18629609375,5.13750609375,13.14049609375Q4.98676609375,13.09479609375,4.83845609375,13.04169609375Q4.69013609375,12.98869609375,4.54460609375,12.92839609375Q4.399076093750001,12.86809609375,4.25668609375,12.80079609375Q4.11428609375,12.73339609375,3.97536609375,12.65919609375Q3.83644609375,12.58489609375,3.70133609375,12.50389609375Q3.56622609375,12.42289609375,3.43525609375,12.33539609375Q3.30427609375,12.24789609375,3.17775609375,12.15409609375Q3.05123609375,12.06019609375,2.92947609375,11.96029609375Q2.80770609375,11.86039609375,2.69099609375,11.75459609375Q2.57427609375,11.64879609375,2.46289609375,11.53739609375Q2.3515060937500003,11.42609609375,2.24572609375,11.30929609375Q2.13994609375,11.19259609375,2.0400160937500003,11.07089609375Q1.94008609375,10.94909609375,1.84624609375,10.82259609375Q1.75241609375,10.69599609375,1.66489609375,10.56507609375Q1.57738609375,10.43409609375,1.49640409375,10.29898609375Q1.4154220937500002,10.16387609375,1.34116809375,10.02495609375Q1.26691309375,9.88603609375,1.19956509375,9.74363609375Q1.1322160937499999,9.60124609375,1.07193609375,9.45571609375Q1.01165509375,9.31018609375,0.95858809375,9.16187609375Q0.90552109375,9.01356609375,0.8597950937500001,8.86282609375Q0.8140700937500001,8.71208609375,0.77579509375,8.55928609375Q0.73752109375,8.40648609375,0.70679009375,8.25199609375Q0.67605979375,8.09749609375,0.65294679375,7.94168609375Q0.62983379375,7.78586609375,0.61439409375,7.62910609375Q0.59895439375,7.47234609375,0.59122525375,7.31501609375Q0.58349609375,7.15768609375,0.58349609375,7.00016609375Q0.58349609375,6.84264609375,0.59122525375,6.68531609375Q0.59895439375,6.52797609375,0.61439409375,6.37121609375Q0.62983379375,6.21445609375,0.65294679375,6.05864609375Q0.67605979375,5.90282609375,0.70679009375,5.74833609375Q0.73752109375,5.59383609375,0.77579509375,5.44103609375Q0.8140700937500001,5.28823609375,0.8597950937500001,5.13750609375Q0.90552109375,4.98676609375,0.95858809375,4.83845609375Q1.01165509375,4.69013609375,1.07193609375,4.54460609375Q1.1322160937499999,4.399076093750001,1.19956509375,4.25668609375Q1.26691309375,4.11428609375,1.34116809375,3.97536609375Q1.4154220937500002,3.83644609375,1.49640409375,3.70133609375Q1.57738609375,3.56622609375,1.66489609375,3.43525609375Q1.75241609375,3.30427609375,1.84624609375,3.17775609375Q1.94008609375,3.05123609375,2.0400160937500003,2.92947609375Q2.13994609375,2.80770609375,2.24572609375,2.69099609375Q2.3515060937500003,2.57427609375,2.46289609375,2.46289609375Q2.57427609375,2.3515060937500003,2.69099609375,2.24572609375Q2.80770609375,2.13994609375,2.92947609375,2.0400160937500003Q3.05123609375,1.94008609375,3.17775609375,1.84624609375Q3.30427609375,1.75241609375,3.43525609375,1.66489609375Q3.56622609375,1.57738609375,3.70133609375,1.49640409375Q3.83644609375,1.4154220937500002,3.97536609375,1.34116809375Q4.11428609375,1.26691309375,4.25668609375,1.19956509375Q4.399076093750001,1.1322160937499999,4.54460609375,1.07193609375Q4.69013609375,1.01165509375,4.83845609375,0.95858809375Q4.98676609375,0.90552109375,5.13750609375,0.8597950937500001Q5.28823609375,0.8140700937500001,5.44103609375,0.77579509375Q5.59383609375,0.73752109375,5.74833609375,0.70679009375Q5.90282609375,0.67605979375,6.05864609375,0.65294679375Q6.21445609375,0.62983379375,6.37121609375,0.61439409375Q6.52797609375,0.59895439375,6.68531609375,0.59122525375Q6.84264609375,0.58349609375,7.00016609375,0.58349609375Q7.15768609375,0.58349609375,7.31501609375,0.59122525375Q7.47234609375,0.59895439375,7.62910609375,0.61439409375Q7.78586609375,0.62983379375,7.94168609375,0.65294679375Q8.09749609375,0.67605979375,8.25199609375,0.70679009375Q8.40648609375,0.73752109375,8.55928609375,0.77579509375Q8.71208609375,0.8140700937500001,8.86282609375,0.8597950937500001Q9.01355609375,0.90552109375,9.16187609375,0.95858809375Q9.31018609375,1.01165509375,9.45571609375,1.07193609375Q9.60124609375,1.1322160937499999,9.74363609375,1.19956509375Q9.88603609375,1.26691309375,10.02495609375,1.34116809375Q10.16387609375,1.4154220937500002,10.29898609375,1.49640409375Q10.43409609375,1.57738609375,10.56506609375,1.66489609375Q10.69599609375,1.75241609375,10.82259609375,1.84624609375Q10.94909609375,1.94008609375,11.07089609375,2.0400160937500003Q11.19259609375,2.13994609375,11.30929609375,2.24572609375Q11.42599609375,2.3515060937500003,11.53739609375,2.46289609375Q11.64879609375,2.57427609375,11.75459609375,2.69099609375Q11.86039609375,2.80770609375,11.96029609375,2.92947609375Q12.06019609375,3.05123609375,12.15409609375,3.17775609375Q12.24789609375,3.30427609375,12.33539609375,3.43525609375Q12.42289609375,3.56622609375,12.50389609375,3.70133609375Q12.58489609375,3.83644609375,12.65919609375,3.97536609375Q12.73339609375,4.11428609375,12.80079609375,4.25668609375Q12.86809609375,4.399076093750001,12.92839609375,4.54460609375Q12.98869609375,4.69013609375,13.04169609375,4.83845609375Q13.09479609375,4.98676609375,13.14049609375,5.13750609375Q13.18629609375,5.28823609375,13.22449609375,5.44103609375Q13.26279609375,5.59383609375,13.29349609375,5.74833609375Q13.32429609375,5.90282609375,13.34739609375,6.05864609375Q13.37049609375,6.21445609375,13.38589609375,6.37121609375Q13.40139609375,6.52797609375,13.40909609375,6.68531609375Q13.41679609375,6.84264609375,13.41679609375,7.00016609375ZM12.24999609375,6.99999609375Q12.24999609375,7.12887609375,12.24369609375,7.25760609375Q12.23739609375,7.38632609375,12.22469609375,7.51458609375Q12.21209609375,7.64284609375,12.19319609375,7.77033609375Q12.17429609375,7.89781609375,12.14909609375,8.02422609375Q12.12399609375,8.150626093749999,12.09269609375,8.27564609375Q12.06129609375,8.40066609375,12.02389609375,8.52399609375Q11.98649609375,8.64732609375,11.94309609375,8.76866609375Q11.89969609375,8.89001609375,11.85039609375,9.00908609375Q11.80109609375,9.12815609375,11.74589609375,9.24466609375Q11.69079609375,9.36116609375,11.63009609375,9.47483609375Q11.56929609375,9.58849609375,11.50309609375,9.69903609375Q11.43679609375,9.80958609375,11.36519609375,9.91674609375Q11.29359609375,10.02390609375,11.21679609375,10.12742609375Q11.14009609375,10.23093609375,11.05829609375,10.33056609375Q10.97649609375,10.43018609375,10.88999609375,10.52568609375Q10.80339609375,10.62119609375,10.71229609375,10.71229609375Q10.62119609375,10.80339609375,10.52568609375,10.88999609375Q10.43018609375,10.97649609375,10.33056609375,11.05829609375Q10.23093609375,11.14009609375,10.12742609375,11.21679609375Q10.02390609375,11.29359609375,9.91674609375,11.36519609375Q9.80958609375,11.43679609375,9.69903609375,11.50309609375Q9.58849609375,11.56929609375,9.47483609375,11.63009609375Q9.36116609375,11.69079609375,9.24466609375,11.74589609375Q9.12815609375,11.80109609375,9.00908609375,11.85039609375Q8.89001609375,11.89969609375,8.76866609375,11.94309609375Q8.64732609375,11.98649609375,8.52399609375,12.02389609375Q8.40066609375,12.06129609375,8.27564609375,12.09269609375Q8.150626093749999,12.12399609375,8.02422609375,12.14909609375Q7.89781609375,12.17429609375,7.77033609375,12.19319609375Q7.64284609375,12.21209609375,7.51458609375,12.22469609375Q7.38632609375,12.23739609375,7.25760609375,12.24369609375Q7.12887609375,12.24999609375,6.99999609375,12.24999609375Q6.87111609375,12.24999609375,6.74239609375,12.24369609375Q6.61366609375,12.23739609375,6.48540609375,12.22469609375Q6.35714609375,12.21209609375,6.22966609375,12.19319609375Q6.10217609375,12.17429609375,5.97577609375,12.14909609375Q5.84937609375,12.12399609375,5.72435609375,12.09269609375Q5.59933609375,12.06129609375,5.47600609375,12.02389609375Q5.35267609375,11.98649609375,5.23132609375,11.94309609375Q5.10997609375,11.89969609375,4.99091609375,11.85039609375Q4.87184609375,11.80109609375,4.75533609375,11.74589609375Q4.63882609375,11.69079609375,4.52516609375,11.63009609375Q4.41150609375,11.56929609375,4.30095609375,11.50309609375Q4.190416093750001,11.43679609375,4.08325609375,11.36519609375Q3.97609609375,11.29359609375,3.87257609375,11.21679609375Q3.76905609375,11.14009609375,3.66943609375,11.05829609375Q3.56980609375,10.97649609375,3.47431609375,10.88999609375Q3.37882609375,10.80339609375,3.28768609375,10.71229609375Q3.19655609375,10.62119609375,3.11000609375,10.52568609375Q3.02345609375,10.43018609375,2.94169609375,10.33056609375Q2.85993609375,10.23093609375,2.78315609375,10.12742609375Q2.70638609375,10.02390609375,2.63478609375,9.91674609375Q2.5631860937499997,9.80958609375,2.49692609375,9.69903609375Q2.43066609375,9.58849609375,2.3699160937499997,9.47483609375Q2.30915609375,9.36116609375,2.25405609375,9.24466609375Q2.1989560937499997,9.12815609375,2.14963609375,9.00908609375Q2.10031609375,8.89001609375,2.05689609375,8.76866609375Q2.01347609375,8.64732609375,1.97606609375,8.52399609375Q1.93864609375,8.40066609375,1.90733609375,8.27564609375Q1.87601609375,8.150626093749999,1.85087609375,8.02422609375Q1.82573609375,7.89781609375,1.80682609375,7.77033609375Q1.78791609375,7.64284609375,1.77527609375,7.51458609375Q1.76264609375,7.38632609375,1.75632609375,7.25760609375Q1.74999609375,7.12887609375,1.74999609375,6.99999609375Q1.74999609375,6.87111609375,1.75632609375,6.74239609375Q1.76264609375,6.61366609375,1.77527609375,6.48540609375Q1.78791609375,6.35714609375,1.80682609375,6.22966609375Q1.82573609375,6.10217609375,1.85087609375,5.97577609375Q1.87601609375,5.84937609375,1.90733609375,5.72435609375Q1.93864609375,5.59933609375,1.97606609375,5.47600609375Q2.01347609375,5.35267609375,2.05689609375,5.23132609375Q2.10031609375,5.10997609375,2.14963609375,4.99091609375Q2.1989560937499997,4.87184609375,2.25405609375,4.75533609375Q2.30915609375,4.63882609375,2.3699160937499997,4.52516609375Q2.43066609375,4.41150609375,2.49692609375,4.30095609375Q2.5631860937499997,4.190416093750001,2.63478609375,4.08325609375Q2.70638609375,3.97609609375,2.78315609375,3.87257609375Q2.85993609375,3.76905609375,2.94169609375,3.66943609375Q3.02345609375,3.56980609375,3.11000609375,3.47431609375Q3.19655609375,3.37882609375,3.28768609375,3.28768609375Q3.37882609375,3.19655609375,3.47431609375,3.11000609375Q3.56980609375,3.02345609375,3.66943609375,2.94169609375Q3.76905609375,2.85993609375,3.87257609375,2.78315609375Q3.97609609375,2.70638609375,4.08325609375,2.63478609375Q4.190416093750001,2.5631860937499997,4.30095609375,2.49692609375Q4.41150609375,2.43066609375,4.52516609375,2.3699160937499997Q4.63882609375,2.30915609375,4.75533609375,2.25405609375Q4.87184609375,2.1989560937499997,4.99091609375,2.14963609375Q5.10997609375,2.10031609375,5.23132609375,2.05689609375Q5.35267609375,2.01347609375,5.47600609375,1.97606609375Q5.59933609375,1.93865609375,5.72435609375,1.90733609375Q5.84937609375,1.87601609375,5.97577609375,1.85087609375Q6.10217609375,1.82573609375,6.22966609375,1.80682609375Q6.35714609375,1.78791609375,6.48540609375,1.77527609375Q6.61366609375,1.76264609375,6.74239609375,1.75632609375Q6.87111609375,1.74999609375,6.99999609375,1.74999609375Q7.12887609375,1.74999609375,7.25760609375,1.75632609375Q7.38632609375,1.76264609375,7.51458609375,1.77527609375Q7.64284609375,1.78791609375,7.77033609375,1.80682609375Q7.89781609375,1.82573609375,8.02422609375,1.85087609375Q8.150626093749999,1.87601609375,8.27564609375,1.90733609375Q8.40066609375,1.93865609375,8.52399609375,1.97606609375Q8.64732609375,2.01347609375,8.76866609375,2.05689609375Q8.89001609375,2.10031609375,9.00908609375,2.14963609375Q9.12815609375,2.1989560937499997,9.24466609375,2.25405609375Q9.36116609375,2.30915609375,9.47483609375,2.3699160937499997Q9.58849609375,2.43066609375,9.69903609375,2.49692609375Q9.80958609375,2.5631860937499997,9.91674609375,2.63478609375Q10.02390609375,2.70638609375,10.12742609375,2.78315609375Q10.23093609375,2.85993609375,10.33056609375,2.94169609375Q10.43018609375,3.02345609375,10.52568609375,3.11000609375Q10.62119609375,3.19655609375,10.71229609375,3.28768609375Q10.80339609375,3.37882609375,10.88999609375,3.47431609375Q10.97649609375,3.56980609375,11.05829609375,3.66943609375Q11.14009609375,3.76905609375,11.21679609375,3.87257609375Q11.29359609375,3.97609609375,11.36519609375,4.08325609375Q11.43679609375,4.190416093750001,11.50309609375,4.30095609375Q11.56929609375,4.41150609375,11.63009609375,4.52516609375Q11.69079609375,4.63882609375,11.74589609375,4.75533609375Q11.80109609375,4.87184609375,11.85039609375,4.99091609375Q11.89969609375,5.10997609375,11.94309609375,5.23132609375Q11.98649609375,5.35267609375,12.02389609375,5.47600609375Q12.06129609375,5.59933609375,12.09269609375,5.72435609375Q12.12399609375,5.84937609375,12.14909609375,5.97577609375Q12.17429609375,6.10217609375,12.19319609375,6.22966609375Q12.21209609375,6.35714609375,12.22469609375,6.48540609375Q12.23739609375,6.61366609375,12.24369609375,6.74239609375Q12.24999609375,6.87111609375,12.24999609375,6.99999609375ZM4.08333609375,6.41650609375Q4.02587609375,6.41650609375,3.96952609375,6.42771609375Q3.91317609375,6.43891609375,3.86009609375,6.46090609375Q3.80702609375,6.48289609375,3.75924609375,6.51481609375Q3.71147609375,6.54673609375,3.67085609375,6.58735609375Q3.63022609375,6.62798609375,3.59830609375,6.67575609375Q3.56638609375,6.72352609375,3.54440609375,6.77660609375Q3.52241609375,6.82968609375,3.51120609375,6.88603609375Q3.49999609375,6.94238609375,3.49999609375,6.99983609375Q3.49999609375,7.05728609375,3.51120609375,7.11363609375Q3.52241609375,7.16998609375,3.54440609375,7.22306609375Q3.56638609375,7.27614609375,3.59830609375,7.32391609375Q3.63022609375,7.37168609375,3.67085609375,7.41231609375Q3.71147609375,7.45293609375,3.75924609375,7.48485609375Q3.80702609375,7.51677609375,3.86009609375,7.53876609375Q3.91317609375,7.56075609375,3.96952609375,7.57195609375Q4.02587609375,7.58316609375,4.08333609375,7.58316609375L9.91666609375,7.58316609375Q9.97411609375,7.58316609375,10.03046609375,7.57196609375Q10.08681609375,7.56075609375,10.13989609375,7.53876609375Q10.19297609375,7.51677609375,10.24074609375,7.48485609375Q10.28851609375,7.45293609375,10.32914609375,7.41231609375Q10.36976609375,7.37168609375,10.40168609375,7.32391609375Q10.43360609375,7.27614609375,10.45559609375,7.22306609375Q10.47758609375,7.16998609375,10.48878609375,7.11363609375Q10.49999609375,7.05728609375,10.49999609375,6.99983609375Q10.49999609375,6.94238609375,10.48878609375,6.88603609375Q10.47758609375,6.82968609375,10.45559609375,6.77660609375Q10.43360609375,6.72352609375,10.40168609375,6.67575609375Q10.36976609375,6.62798609375,10.32914609375,6.58735609375Q10.28851609375,6.54673609375,10.24074609375,6.51481609375Q10.19297609375,6.48289609375,10.13989609375,6.46090609375Q10.08681609375,6.43891609375,10.03046609375,6.42771609375Q9.97411609375,6.41650609375,9.91666609375,6.41650609375L4.08333609375,6.41650609375Z" fill-rule="evenodd" fill-opacity="1"/></g></g></svg>