<svg xmlns="http://www.w3.org/2000/svg" xmlns:xlink="http://www.w3.org/1999/xlink" fill="none" version="1.1" width="14.666666984558105" height="14.666666984558105" viewBox="0 0 14.666666984558105 14.666666984558105"><g transform="matrix(0,-1,-1,0,29.33333396911621,29.33333396911621)"><path d="M21.999996984558106,29.333366984558104C26.050066984558107,29.333366984558104,29.333366984558104,26.050066984558107,29.333366984558104,21.999996984558106C29.333366984558104,17.949916984558104,26.050066984558107,14.666666984558105,21.999996984558106,14.666666984558105C17.949916984558104,14.666666984558105,14.666666984558105,17.949916984558104,14.666666984558105,21.999996984558106C14.666666984558105,26.050066984558107,17.949916984558104,29.333366984558104,21.999996984558106,29.333366984558104ZM21.999996984558106,15.999996984558106C25.313666984558104,15.999996984558106,27.999966984558107,18.686286984558105,27.999966984558107,21.999996984558106C27.999966984558107,25.313666984558104,25.313666984558104,27.999966984558107,21.999996984558106,27.999966984558107C18.686286984558105,27.999966984558107,15.999996984558106,25.313666984558104,15.999996984558106,21.999996984558106C15.999996984558106,18.686286984558105,18.686286984558105,15.999996984558106,21.999996984558106,15.999996984558106ZM21.677976984558107,18.626756984558106L21.670206984558106,18.634536984558107C21.409856984558104,18.894876984558106,21.398276984558105,19.312506984558105,21.658616984558105,19.572856984558104L23.398136984558107,21.312496984558106L18.994966984558104,21.312496984558106C18.626776984558106,21.312496984558106,18.333336984558105,21.615976984558106,18.333336984558105,21.984166984558104C18.333336984558105,22.342356984558105,18.626776984558106,22.645836984558105,18.994966984558104,22.645836984558105L23.382616984558105,22.645836984558105L21.658616984558105,24.369956984558108C21.398276984558105,24.630306984558104,21.409856984558104,25.047966984558105,21.670206984558106,25.308266984558106L21.677976984558107,25.316066984558105C21.938326984558106,25.576366984558106,22.347956984558106,25.566266984558105,22.608306984558105,25.305866984558108L25.471366984558106,22.442806984558104C25.718066984558106,22.196166984558104,25.731066984558105,21.804336984558105,25.510366984558104,21.542406984558106L25.471366984558106,21.499996984558106L22.608306984558105,18.636896984558106C22.347956984558106,18.376546984558104,21.938326984558106,18.366406984558104,21.677976984558107,18.626756984558106Z" fill-rule="evenodd" fill="#000000"/></g></svg>