<svg xmlns="http://www.w3.org/2000/svg" xmlns:xlink="http://www.w3.org/1999/xlink" fill="none" version="1.1" width="14.666666984558105" height="11.333333969116211" viewBox="0 0 14.666666984558105 11.333333969116211"><g><path d="M13.3913,5.66295C13.3913,5.66295,13.3913,5.66364,13.3913,5.66364C13.3913,5.84916,13.2732,6.31207,12.86,6.95081C12.86,6.95081,12.7607,7.09922,12.7607,7.09922C11.7374,8.57935,9.7447,10.0741,7.33332,10.0741C5.6694,10.0741,4.16269,9.3367,3.03293,8.34336C3.03293,8.34336,2.88078,8.20576,2.88078,8.20576C2.88078,8.20576,2.73418,8.06612,2.73418,8.06612C2.39235,7.73133,2.10383,7.38471,1.87489,7.05031C1.87489,7.05031,1.78174,6.90962,1.78174,6.90962C1.78174,6.90962,1.70018,6.7783,1.70018,6.7783C1.70018,6.7783,1.62105,6.64195,1.62105,6.64195C1.34904,6.15382,1.27536,5.81476,1.27536,5.66362C1.27536,5.51305,1.34968,5.17222,1.62624,4.68014C1.8892,4.21226,2.28855,3.69183,2.8075,3.19782C2.8075,3.19782,2.96295,3.05392,2.96295,3.05392C3.15474,2.88126,3.35949,2.71454,3.57584,2.55691C3.57584,2.55691,3.75736,2.4287,3.75736,2.4287C4.78153,1.72774,6.00893,1.25926,7.33333,1.25926C9.03616,1.25926,10.5132,1.96842,11.6097,2.91741C11.6097,2.91741,11.7618,3.05297,11.7618,3.05297C11.7618,3.05297,11.9082,3.19067,11.9082,3.19067C12.2257,3.4981,12.4973,3.81782,12.7188,4.13073C12.7188,4.13073,12.8206,4.27936,12.8206,4.27936C13.2579,4.93973,13.3914,5.44036,13.3913,5.66295ZM13.8197,7.80095C13.8197,7.80095,13.9292,7.63725,13.9292,7.63725C14.4062,6.90236,14.6667,6.19469,14.6667,5.66364C14.667,5.09367,14.3901,4.34603,13.8824,3.58166C13.8824,3.58166,13.77,3.41767,13.77,3.41767C13.4998,3.0347,13.1726,2.65042,12.7943,2.28495C12.7943,2.28495,12.6291,2.12953,12.6291,2.12953C12.6291,2.12953,12.4577,1.97677,12.4577,1.97677C11.1784,0.8671,9.41052,0,7.33333,0C5.69527,0,4.2163,0.58045,3.02273,1.39929C3.02273,1.39929,2.82646,1.53792,2.82646,1.53792C2.56836,1.72553,2.3247,1.92399,2.09686,2.12952C2.09686,2.12952,1.92897,2.28494,1.92897,2.28494C0.719866,3.43354,0,4.76794,0,5.66362C0,6.11153,0.179194,6.66943,0.509308,7.25911C0.509308,7.25911,0.603059,7.42066,0.603059,7.42066C0.603059,7.42066,0.704167,7.58343,0.704167,7.58343C0.704167,7.58343,0.812503,7.74708,0.812503,7.74708C1.09227,8.15698,1.43862,8.57174,1.84258,8.96657C1.84258,8.96657,2.00721,9.12338,2.00721,9.12338C2.00721,9.12338,2.17786,9.2777,2.17786,9.2777C3.48,10.425,5.27914,11.3333,7.33332,11.3333C10.2843,11.3333,12.6325,9.52318,13.8197,7.80095ZM6.05797,5.66667C6.05797,4.9712,6.62897,4.40741,7.33333,4.40741C8.0377,4.40741,8.6087,4.9712,8.6087,5.66667C8.6087,6.36214,8.0377,6.92593,7.33333,6.92593C6.62897,6.92593,6.05797,6.36214,6.05797,5.66667ZM7.33333,3.14815C5.92461,3.14815,4.78261,4.27573,4.78261,5.66667C4.78261,7.05761,5.92461,8.18519,7.33333,8.18519C8.74206,8.18519,9.88406,7.05761,9.88406,5.66667C9.88406,4.27573,8.74206,3.14815,7.33333,3.14815Z" fill="#000000" fill-opacity="0.44999998807907104"/></g></svg>