<svg xmlns="http://www.w3.org/2000/svg" xmlns:xlink="http://www.w3.org/1999/xlink" fill="none" version="1.1" width="24" height="24" viewBox="0 0 24 24"><g><g><path d="M2.5,7.36C2.5,5.15752,2.5,4.05628,2.921821,3.21209C3.308994,2.43723,3.93723,1.808994,4.71209,1.421821C5.55628,1,6.65752,1,8.86,1C8.86,1,15.14,1,15.14,1C17.3425,1,18.4437,1,19.2879,1.421821C20.0628,1.808994,20.691,2.43723,21.0782,3.21209C21.5,4.05628,21.5,5.15752,21.5,7.36C21.5,7.36,21.5,16.64,21.5,16.64C21.5,18.8425,21.5,19.9437,21.0782,20.7879C20.691,21.5628,20.0628,22.191,19.2879,22.5782C18.4437,23,17.3425,23,15.14,23C15.14,23,8.86,23,8.86,23C6.65752,23,5.55628,23,4.71209,22.5782C3.93723,22.191,3.308994,21.5628,2.921821,20.7879C2.5,19.9437,2.5,18.8425,2.5,16.64C2.5,16.64,2.5,7.36,2.5,7.36ZM6.5,7.5C6.5,8.05228,6.94772,8.5,7.5,8.5C7.5,8.5,16,8.5,16,8.5C16.552300000000002,8.5,17,8.05228,17,7.5C17,6.94772,16.552300000000002,6.5,16,6.5C16,6.5,7.5,6.5,7.5,6.5C6.94772,6.5,6.5,6.94772,6.5,7.5ZM7.5,11C6.94772,11,6.5,11.4477,6.5,12C6.5,12.5523,6.94772,13,7.5,13C7.5,13,12,13,12,13C12.5523,13,13,12.5523,13,12C13,11.4477,12.5523,11,12,11C12,11,7.5,11,7.5,11Z" fill="#000000" fill-opacity="0.05999999865889549"/></g></g></svg>