<svg xmlns="http://www.w3.org/2000/svg" xmlns:xlink="http://www.w3.org/1999/xlink" fill="none" version="1.1" width="24" height="48" viewBox="0 0 24 48"><g><path d="M10.476,39.808Q8.028,39.808,5.94,39.052Q3.852,38.296,2.016,37.036L4.104,32.536Q5.472,33.58,6.984,34.12Q8.496,34.66,9.972,34.66Q12.132,34.66,13.392,33.508Q14.652,32.356,14.652,30.484Q14.652,29.548,14.274,28.81Q13.896,28.072,13.284,27.55Q12.672,27.028,11.844,26.758Q11.016,26.488,10.152,26.488L8.064,26.488L8.064,22.06L10.116,22.06Q10.944,22.06,11.7,21.772Q12.456,21.484,13.014,20.98Q13.572,20.476,13.896,19.774Q14.22,19.072,14.22,18.244Q14.22,16.66,13.032,15.796Q11.844,14.932,9.9,14.932Q9.288,14.932,8.532,15.022Q7.776,15.112,6.966,15.292Q6.156,15.472,5.346,15.76Q4.536,16.048,3.852,16.444L3.816,11.476Q5.436,10.648,7.38,10.198Q9.324,9.748,11.304,9.748Q13.212,9.748,14.868,10.27Q16.524,10.792,17.73,11.764Q18.936,12.736,19.638,14.14Q20.34,15.544,20.34,17.344Q20.34,19.504,19.17,21.25Q18,22.996,15.696,24.04Q18.324,24.94,19.692,26.74Q21.06,28.54,21.06,31.132Q21.06,33.004,20.304,34.588Q19.548,36.172,18.144,37.342Q16.74,38.512,14.796,39.16Q12.852,39.808,10.476,39.808Z" fill="#FFFFFF" fill-opacity="1"/><path d="M16.4329,23.6723Q18.1951,22.7048,19.17,21.25Q20.34,19.504,20.34,17.344Q20.34,15.544,19.638,14.14Q18.936,12.736,17.73,11.764Q16.524,10.792,14.868,10.27Q13.212,9.748,11.304,9.748Q9.324,9.748,7.38,10.198Q5.436,10.648,3.816,11.476L3.84705,15.7612L3.852,16.444Q4.13973,16.2774,4.44974,16.13Q4.87672,15.9269,5.346,15.76Q6.156,15.472,6.966,15.292Q7.776,15.112,8.532,15.022Q9.288,14.932,9.9,14.932Q11.844,14.932,13.032,15.796Q14.22,16.66,14.22,18.244Q14.22,19.072,13.896,19.774Q13.572,20.476,13.014,20.98Q12.456,21.484,11.7,21.772Q10.944,22.06,10.116,22.06L8.064,22.06L8.064,26.488L10.152,26.488Q11.016,26.488,11.844,26.758Q12.672,27.028,13.284,27.55Q13.896,28.072,14.274,28.81Q14.652,29.548,14.652,30.484Q14.652,32.356,13.392,33.508Q12.132,34.66,9.972,34.66Q8.496,34.66,6.984,34.12Q5.74312,33.6768,4.59924,32.8942Q4.34932,32.7232,4.104,32.536L3.84567,33.0927L2.016,37.036Q3.852,38.296,5.94,39.052Q8.028,39.808,10.476,39.808Q12.852,39.808,14.796,39.16Q16.74,38.512,18.144,37.342Q19.548,36.172,20.304,34.588Q21.06,33.004,21.06,31.132Q21.06,28.54,19.692,26.74Q18.5319,25.2136,16.4657,24.3343Q16.0954,24.1768,15.696,24.04Q16.0802,23.8659,16.4329,23.6723ZM2.77699,36.8215Q4.36605,37.844,6.14426,38.4878Q8.13329,39.208,10.476,39.208Q12.7546,39.208,14.6063,38.5908Q16.4429,37.9786,17.7599,36.8811Q19.063,35.7951,19.7625,34.3296Q20.46,32.8682,20.46,31.132Q20.46,28.7421,19.2143,27.1031Q17.9568,25.4485,15.5016,24.6076L15.4484,23.4935Q17.5967,22.52,18.6716,20.916Q19.74,19.3216,19.74,17.344Q19.74,15.6856,19.1013,14.4083Q18.4578,13.1212,17.3535,12.2312Q16.2356,11.3302,14.6876,10.8422Q13.1197,10.348,11.304,10.348Q9.39254,10.348,7.51531,10.7825Q5.8397,11.1704,4.41871,11.8475L4.44497,15.4723Q4.78352,15.3232,5.14499,15.1947Q5.98979,14.8943,6.83584,14.7063Q7.6752,14.5198,8.46107,14.4262Q9.2524,14.332,9.9,14.332Q12.0391,14.332,13.3849,15.3108Q14.82,16.3545,14.82,18.244Q14.82,19.2038,14.4408,20.0254Q14.0653,20.8389,13.4162,21.4253Q12.7747,22.0047,11.9136,22.3327Q11.0544,22.66,10.116,22.66L8.664,22.66L8.664,25.888L10.152,25.888Q11.1114,25.888,12.03,26.1876Q12.971,26.4944,13.6734,27.0935Q14.3758,27.6927,14.808,28.5365Q15.252,29.4033,15.252,30.484Q15.252,32.6204,13.7969,33.9508Q12.3649,35.26,9.972,35.26Q8.39206,35.26,6.7822,34.685Q5.51317,34.2318,4.34337,33.4456L2.77699,36.8215Z" fill-rule="evenodd" fill="#008BD6" fill-opacity="1"/></g></svg>