<svg xmlns="http://www.w3.org/2000/svg" xmlns:xlink="http://www.w3.org/1999/xlink" fill="none" version="1.1" width="24" height="48" viewBox="0 0 24 48"><g><path d="M12.024,39.808Q9.54,39.808,7.542,38.836Q5.544,37.864,4.14,36.064Q2.736,34.264,1.998,31.708Q1.26,29.152,1.26,25.984Q1.26,22.132,2.196,19.108Q3.132,16.084,4.824,14.014Q6.516,11.944,8.892,10.846Q11.268,9.748,14.148,9.748Q15.84,9.748,17.496,9.982Q19.152,10.216,20.304,10.54L20.16,15.328Q19.116,15.076,17.892,14.896Q16.668,14.716,15.408,14.716Q11.988,14.716,10.098,16.768Q8.208,18.82,7.992,22.492Q9.144,21.448,10.746,20.782Q12.348,20.116,14.112,20.116Q15.84,20.116,17.316,20.71Q18.792,21.304,19.908,22.474Q21.024,23.644,21.654,25.39Q22.284,27.136,22.284,29.44Q22.284,31.816,21.528,33.742Q20.772,35.668,19.404,37.018Q18.036,38.368,16.164,39.088Q14.292,39.808,12.024,39.808ZM12.204,35.02Q13.86,35.02,15.012,33.688Q16.164,32.356,16.164,29.728Q16.164,28.396,15.84,27.406Q15.516,26.416,14.976,25.75Q14.436,25.084,13.716,24.76Q12.996,24.436,12.204,24.436Q11.016,24.436,9.828,25.084Q8.64,25.732,7.92,26.668Q7.92,27.604,7.938,28.198Q7.956,28.792,8.028,29.512Q8.316,31.888,9.378,33.454Q10.44,35.02,12.204,35.02Z" fill="#FFFFFF" fill-opacity="1"/><path d="M8.06678,21.6438Q8.43214,18.5766,10.098,16.768Q11.988,14.716,15.408,14.716Q16.668,14.716,17.892,14.896Q18.7747,15.0258,19.5638,15.1931Q19.8689,15.2577,20.16,15.328L20.1784,14.7156L20.304,10.54Q19.152,10.216,17.496,9.982Q15.84,9.748,14.148,9.748Q11.268,9.748,8.892,10.846Q6.516,11.944,4.824,14.014Q3.132,16.084,2.196,19.108Q1.26,22.132,1.26,25.984Q1.26,29.152,1.998,31.708Q2.736,34.264,4.14,36.064Q5.544,37.864,7.542,38.836Q9.54,39.808,12.024,39.808Q14.292,39.808,16.164,39.088Q18.036,38.368,19.404,37.018Q20.772,35.668,21.528,33.742Q22.284,31.816,22.284,29.44Q22.284,27.136,21.654,25.39Q21.024,23.644,19.908,22.474Q18.792,21.304,17.316,20.71Q15.84,20.116,14.112,20.116Q12.348,20.116,10.746,20.782Q9.56925,21.2712,8.63531,21.9644Q8.2978,22.2149,7.992,22.492Q8.01762,22.0565,8.06678,21.6438ZM19.6899,10.9991Q18.7142,10.7601,17.4121,10.5761Q15.7978,10.348,14.148,10.348Q11.3999,10.348,9.1437,11.3907Q6.89312,12.4307,5.28855,14.3937Q3.67058,16.3732,2.76917,19.2854Q1.86,22.2227,1.86,25.984Q1.86,29.0671,2.57445,31.5416Q3.28033,33.9863,4.6131,35.695Q5.93155,37.3853,7.80448,38.2965Q9.67821,39.208,12.024,39.208Q14.1806,39.208,15.9486,38.528Q17.7037,37.853,18.9826,36.5909Q20.26,35.3303,20.9695,33.5228Q21.684,31.7025,21.684,29.44Q21.684,27.2409,21.0896,25.5936Q20.5025,23.9666,19.4738,22.8881Q18.4475,21.8121,17.092,21.2666Q15.7238,20.716,14.112,20.716Q12.4678,20.716,10.9763,21.336Q9.47008,21.9622,8.39491,22.9366L7.39304,22.4568Q7.62161,18.571,9.65667,16.3615Q11.7249,14.116,15.408,14.116Q16.7119,14.116,17.9793,14.3024Q18.8216,14.4263,19.5821,14.5839L19.6899,10.9991ZM8.88142,33.7908Q10.1219,35.62,12.204,35.62Q14.1343,35.62,15.4658,34.0805Q16.764,32.5795,16.764,29.728Q16.764,28.3003,16.4102,27.2194Q16.0518,26.1241,15.4421,25.3721Q14.8123,24.5954,13.9622,24.2128Q13.1248,23.836,12.204,23.836Q10.863,23.836,9.54069,24.5573Q8.24158,25.2659,7.44443,26.3022L7.32,26.4639L7.32,26.668Q7.32,27.6131,7.33828,28.2162Q7.3569,28.831,7.43098,29.5717Q7.73785,32.1045,8.88142,33.7908ZM15.012,33.688Q13.86,35.02,12.204,35.02Q10.44,35.02,9.378,33.454Q8.316,31.888,8.028,29.512Q7.956,28.792,7.938,28.198Q7.92,27.604,7.92,26.668Q8.64,25.732,9.828,25.084Q11.016,24.436,12.204,24.436Q12.996,24.436,13.716,24.76Q14.436,25.084,14.976,25.75Q15.516,26.416,15.84,27.406Q16.164,28.396,16.164,29.728Q16.164,32.356,15.012,33.688Z" fill-rule="evenodd" fill="#008BD6" fill-opacity="1"/></g></svg>