<svg xmlns="http://www.w3.org/2000/svg" xmlns:xlink="http://www.w3.org/1999/xlink" fill="none" version="1.1" width="24" height="48" viewBox="0 0 24 48"><g><path d="M11.808,39.808Q9.432,39.808,7.47,39.232Q5.508,38.656,4.14,37.594Q2.772,36.532,2.016,35.038Q1.26,33.544,1.26,31.708Q1.26,30.232,1.692,29.062Q2.124,27.892,2.862,26.974Q3.6,26.056,4.59,25.39Q5.58,24.724,6.696,24.22Q4.86,23.284,3.564,21.7Q2.268,20.116,2.268,17.956Q2.268,16.192,2.916,14.68Q3.564,13.168,4.806,12.07Q6.048,10.972,7.848,10.36Q9.648,9.748,11.916,9.748Q14.184,9.748,15.966,10.324Q17.748,10.9,18.99,11.926Q20.232,12.952,20.88,14.41Q21.528,15.868,21.528,17.596Q21.528,18.82,21.168,19.81Q20.808,20.8,20.178,21.61Q19.548,22.42,18.684,23.068Q17.82,23.716,16.848,24.22Q18,24.724,19.026,25.39Q20.052,26.056,20.826,26.956Q21.6,27.856,22.05,29.008Q22.5,30.16,22.5,31.564Q22.5,33.436,21.744,34.948Q20.988,36.46,19.584,37.54Q18.18,38.62,16.2,39.214Q14.22,39.808,11.808,39.808ZM11.916,22.528Q12.6,22.276,13.248,21.88Q13.896,21.484,14.382,20.944Q14.868,20.404,15.174,19.738Q15.48,19.072,15.48,18.244Q15.48,16.552,14.454,15.544Q13.428,14.536,11.916,14.5Q10.404,14.5,9.36,15.49Q8.316,16.48,8.316,18.244Q8.316,19.756,9.288,20.836Q10.26,21.916,11.916,22.528ZM11.916,35.02Q13.68,35.02,14.922,33.94Q16.164,32.86,16.164,30.916Q16.164,29.188,15.03,27.982Q13.896,26.776,11.916,26.272Q9.864,26.776,8.748,27.982Q7.632,29.188,7.632,30.916Q7.632,31.888,7.974,32.644Q8.316,33.4,8.91,33.94Q9.504,34.48,10.278,34.75Q11.052,35.02,11.916,35.02Z" fill="#FFFFFF" fill-opacity="1"/><path d="M6.0275,24.5422Q5.2783,24.927,4.59,25.39Q3.6,26.056,2.862,26.974Q2.124,27.892,1.692,29.062Q1.26,30.232,1.26,31.708Q1.26,33.544,2.016,35.038Q2.772,36.532,4.14,37.594Q5.508,38.656,7.47,39.232Q9.432,39.808,11.808,39.808Q14.22,39.808,16.2,39.214Q18.18,38.62,19.584,37.54Q20.988,36.46,21.744,34.948Q22.5,33.436,22.5,31.564Q22.5,30.16,22.05,29.008Q21.6,27.856,20.826,26.956Q20.052,26.056,19.026,25.39Q18.3069,24.9232,17.5259,24.536Q17.1926,24.3708,16.848,24.22Q17.181,24.0473,17.5013,23.8578Q18.116,23.494,18.684,23.068Q19.548,22.42,20.178,21.61Q20.808,20.8,21.168,19.81Q21.528,18.82,21.528,17.596Q21.528,15.868,20.88,14.41Q20.232,12.952,18.99,11.926Q17.748,10.9,15.966,10.324Q14.184,9.748,11.916,9.748Q9.648,9.748,7.848,10.36Q6.048,10.972,4.806,12.07Q3.564,13.168,2.916,14.68Q2.268,16.192,2.268,17.956Q2.268,20.116,3.564,21.7Q4.62569,22.9976,6.04976,23.8604Q6.36406,24.0508,6.696,24.22Q6.35589,24.3736,6.0275,24.5422ZM16.0276,38.6393Q14.132,39.208,11.808,39.208Q9.51823,39.208,7.63901,38.6563Q5.78612,38.1123,4.50793,37.1201Q3.24647,36.1408,2.55136,34.7671Q1.86,33.4008,1.86,31.708Q1.86,30.3392,2.25486,29.2698Q2.65295,28.1917,3.32963,27.3499Q4.01053,26.503,4.92491,25.8878Q5.87299,25.25,6.94295,24.7668L8.08127,24.2527L6.96851,23.6855Q5.24467,22.8066,4.02837,21.3201Q2.868,19.9018,2.868,17.956Q2.868,16.3152,3.46749,14.9164Q4.06239,13.5282,5.2034,12.5195Q6.35517,11.5013,8.04114,10.9281Q9.74721,10.348,11.916,10.348Q14.0894,10.348,15.7815,10.8949Q17.4543,11.4356,18.6079,12.3886Q19.741,13.3247,20.3317,14.6537Q20.928,15.9953,20.928,17.596Q20.928,18.7143,20.6041,19.605Q20.2764,20.5062,19.7044,21.2416Q19.1237,21.9882,18.324,22.588Q17.4997,23.2062,16.5718,23.6873L15.456,24.2659L16.6075,24.7697Q17.7145,25.254,18.6993,25.8933Q19.6532,26.5124,20.3711,27.3472Q21.0784,28.1696,21.4911,29.2263Q21.9,30.273,21.9,31.564Q21.9,33.2944,21.2073,34.6797Q20.513,36.0684,19.2182,37.0644Q17.9018,38.0771,16.0276,38.6393ZM11.9157,23.1675L12.1234,23.091Q12.8626,22.8187,13.5609,22.392Q14.2835,21.9504,14.828,21.3454Q15.3751,20.7375,15.7192,19.9885Q16.08,19.2032,16.08,18.244Q16.08,16.3004,14.8745,15.116Q13.6793,13.9418,11.9303,13.9002L11.9231,13.9L11.916,13.9Q10.1647,13.9,8.94714,15.0546Q7.716,16.2221,7.716,18.244Q7.716,19.9862,8.84202,21.2374Q9.9131,22.4275,11.708,23.0908L11.9157,23.1675ZM13.248,21.88Q12.6,22.276,11.916,22.528Q10.26,21.916,9.288,20.836Q8.316,19.756,8.316,18.244Q8.316,16.48,9.36,15.49Q10.404,14.5,11.916,14.5Q13.428,14.536,14.454,15.544Q15.48,16.552,15.48,18.244Q15.48,19.072,15.174,19.738Q14.868,20.404,14.382,20.944Q13.896,21.484,13.248,21.88ZM10.0804,35.3165Q10.9503,35.62,11.916,35.62Q13.9044,35.62,15.3157,34.3928Q16.764,33.1334,16.764,30.916Q16.764,28.9502,15.4671,27.571Q14.2134,26.2377,12.064,25.6905L11.9186,25.6535L11.7729,25.6893Q9.54596,26.2363,8.30762,27.5745Q7.032,28.953,7.032,30.916Q7.032,32.0174,7.42734,32.8913Q7.82052,33.7604,8.5064,34.384Q9.1909,35.0062,10.0804,35.3165ZM14.922,33.94Q13.68,35.02,11.916,35.02Q11.052,35.02,10.278,34.75Q9.504,34.48,8.91,33.94Q8.316,33.4,7.974,32.644Q7.632,31.888,7.632,30.916Q7.632,29.188,8.748,27.982Q9.864,26.776,11.916,26.272Q13.896,26.776,15.03,27.982Q16.164,29.188,16.164,30.916Q16.164,32.86,14.922,33.94Z" fill-rule="evenodd" fill="#008BD6" fill-opacity="1"/></g></svg>