<svg xmlns="http://www.w3.org/2000/svg" xmlns:xlink="http://www.w3.org/1999/xlink" fill="none" version="1.1" width="24" height="48" viewBox="0 0 24 48"><g><path d="M10.224,39.808Q8.316,39.808,6.39,39.448Q4.464,39.088,3.204,38.476L4.896,34.084Q5.832,34.48,7.074,34.66Q8.316,34.84,9.504,34.84Q10.836,34.84,11.97,34.282Q13.104,33.724,13.932,32.698Q14.76,31.672,15.246,30.232Q15.732,28.792,15.768,27.064Q14.616,28.108,13.014,28.774Q11.412,29.44,9.648,29.44Q7.92,29.44,6.444,28.846Q4.968,28.252,3.852,27.082Q2.736,25.912,2.106,24.166Q1.476,22.42,1.476,20.116Q1.476,17.74,2.232,15.832Q2.988,13.924,4.356,12.574Q5.724,11.224,7.596,10.486Q9.468,9.748,11.736,9.748Q14.22,9.748,16.218,10.702Q18.216,11.656,19.62,13.42Q21.024,15.184,21.762,17.722Q22.5,20.26,22.5,23.428Q22.5,27.172,21.636,30.196Q20.772,33.22,19.188,35.362Q17.604,37.504,15.336,38.656Q13.068,39.808,10.224,39.808ZM11.556,25.12Q12.744,25.12,13.932,24.472Q15.12,23.824,15.84,22.888Q15.84,21.952,15.822,21.304Q15.804,20.656,15.732,19.936Q15.624,18.748,15.282,17.758Q14.94,16.768,14.4,16.048Q13.86,15.328,13.14,14.932Q12.42,14.536,11.556,14.536Q9.9,14.536,8.748,15.868Q7.596,17.2,7.596,19.828Q7.596,21.16,7.92,22.15Q8.244,23.14,8.784,23.806Q9.324,24.472,10.044,24.796Q10.764,25.12,11.556,25.12Z" fill="#FFFFFF" fill-opacity="1"/><path d="M15.7238,27.888Q15.6137,29.1424,15.246,30.232Q14.76,31.672,13.932,32.698Q13.104,33.724,11.97,34.282Q10.836,34.84,9.504,34.84Q8.316,34.84,7.074,34.66Q6.09543,34.5182,5.30682,34.2423Q5.09452,34.168,4.896,34.084L4.6802,34.6442L3.204,38.476Q4.464,39.088,6.39,39.448Q8.316,39.808,10.224,39.808Q13.068,39.808,15.336,38.656Q17.604,37.504,19.188,35.362Q20.772,33.22,21.636,30.196Q22.5,27.172,22.5,23.428Q22.5,20.26,21.762,17.722Q21.024,15.184,19.62,13.42Q18.216,11.656,16.218,10.702Q14.22,9.748,11.736,9.748Q9.468,9.748,7.596,10.486Q5.724,11.224,4.356,12.574Q2.988,13.924,2.232,15.832Q1.476,17.74,1.476,20.116Q1.476,22.42,2.106,24.166Q2.736,25.912,3.852,27.082Q4.968,28.252,6.444,28.846Q7.92,29.44,9.648,29.44Q11.412,29.44,13.014,28.774Q14.2041,28.2792,15.1459,27.5758Q15.4718,27.3324,15.768,27.064Q15.7592,27.4845,15.7238,27.888ZM3.96931,38.1585Q5.02418,38.5823,6.50024,38.8582Q8.37157,39.208,10.224,39.208Q12.9244,39.208,15.0643,38.1211Q17.2059,37.0333,18.7056,35.0053Q20.2249,32.9507,21.0591,30.0312Q21.9,27.088,21.9,23.428Q21.9,20.3455,21.1859,17.8895Q20.4809,15.4651,19.1505,13.7936Q17.8327,12.1379,15.9595,11.2434Q14.0841,10.348,11.736,10.348Q9.582,10.348,7.81606,11.0442Q6.05815,11.7372,4.77745,13.0011Q3.4993,14.2624,2.78981,16.053Q2.076,17.8545,2.076,20.116Q2.076,22.3151,2.67038,23.9624Q3.25746,25.5894,4.28616,26.6679Q5.31251,27.7439,6.668,28.2894Q8.03621,28.84,9.648,28.84Q11.2923,28.84,12.7837,28.22Q14.2899,27.5938,15.3651,26.6194L16.3969,25.6843L16.3679,27.0765Q16.33,28.8966,15.8145,30.4239Q15.2942,31.9654,14.3989,33.0748Q13.4877,34.2039,12.2349,34.8204Q10.9756,35.44,9.504,35.44Q8.27276,35.44,6.98794,35.2538Q6.03359,35.1155,5.24233,34.854L3.96931,38.1585ZM9.79778,25.3432Q10.6352,25.72,11.556,25.72Q12.897,25.72,14.2193,24.9987Q15.5184,24.2901,16.3156,23.2538L16.44,23.0921L16.44,22.888Q16.44,21.9437,16.4218,21.2873Q16.4032,20.6177,16.329,19.8763Q16.2149,18.621,15.8491,17.5621Q15.4764,16.4832,14.88,15.688Q14.2624,14.8646,13.4292,14.4063Q12.5741,13.936,11.556,13.936Q9.62565,13.936,8.29418,15.4755Q6.996,16.9765,6.996,19.828Q6.996,21.2557,7.34976,22.3366Q7.7082,23.4319,8.31795,24.1839Q8.94775,24.9606,9.79778,25.3432ZM13.932,24.472Q12.744,25.12,11.556,25.12Q10.764,25.12,10.044,24.796Q9.324,24.472,8.784,23.806Q8.244,23.14,7.92,22.15Q7.596,21.16,7.596,19.828Q7.596,17.2,8.748,15.868Q9.9,14.536,11.556,14.536Q12.42,14.536,13.14,14.932Q13.86,15.328,14.4,16.048Q14.94,16.768,15.282,17.758Q15.624,18.748,15.732,19.936Q15.804,20.656,15.822,21.304Q15.84,21.952,15.84,22.888Q15.12,23.824,13.932,24.472Z" fill-rule="evenodd" fill="#008BD6" fill-opacity="1"/></g></svg>