<svg xmlns="http://www.w3.org/2000/svg" xmlns:xlink="http://www.w3.org/1999/xlink" fill="none" version="1.1" width="14.666666984558105" height="14.666666984558105" viewBox="0 0 14.666666984558105 14.666666984558105"><g><path d="M12.5188,2.14788C9.65494,-0.715961,5.01173,-0.715961,2.14788,2.14788C-0.715961,5.01173,-0.715961,9.65494,2.14788,12.5188C5.01173,15.3826,9.65494,15.3826,12.5188,12.5188C15.3826,9.65494,15.3826,5.01173,12.5188,2.14788ZM3.09069,3.09069C5.43384,0.747547,9.23283,0.747547,11.576,3.09069C13.9191,5.43384,13.9191,9.23283,11.576,11.576C9.23283,13.9191,5.43384,13.9191,3.09069,11.576C0.747547,9.23283,0.747547,5.43384,3.09069,3.09069ZM10.3333,7.66667C10.3333,7.29848,10.0349,7,9.66667,7L7.66667,7L7.66667,4.33333C7.66667,3.96514,7.36819,3.66667,7,3.66667C6.63181,3.66667,6.33333,3.96514,6.33333,4.33333L6.33333,7.66667C6.33333,8.03486,6.63181,8.33333,7,8.33333L9.66667,8.33333C10.0349,8.33333,10.3333,8.03486,10.3333,7.66667Z" fill-rule="evenodd" fill="#000000" fill-opacity="0.44999998807907104"/></g></svg>